<svg width="974.859253" height="780.000000" viewBox="0 0 974.859 780" fill="none" xmlns="http://www.w3.org/2000/svg" xmlns:xlink="http://www.w3.org/1999/xlink">
	<desc>
			Created with Pixso.
	</desc>
	<defs>
		<linearGradient x1="151.033142" y1="315.165649" x2="218.224457" y2="187.827271" id="paint_linear_108_1333_0" gradientUnits="userSpaceOnUse">
			<stop stop-color="#010101" stop-opacity="0.000000"/>
			<stop offset="0.950000" stop-color="#010101"/>
		</linearGradient>
		<linearGradient x1="206.194183" y1="311.364624" x2="304.251282" y2="132.434998" id="paint_linear_108_1335_0" gradientUnits="userSpaceOnUse">
			<stop stop-color="#010101" stop-opacity="0.000000"/>
			<stop offset="0.950000" stop-color="#010101"/>
		</linearGradient>
		<linearGradient x1="326.176239" y1="320.092133" x2="444.959808" y2="1.724052" id="paint_linear_108_1337_0" gradientUnits="userSpaceOnUse">
			<stop stop-color="#010101" stop-opacity="0.000000"/>
			<stop offset="0.950000" stop-color="#010101"/>
		</linearGradient>
		<linearGradient x1="454.010193" y1="336.583038" x2="641.070068" y2="-119.006744" id="paint_linear_108_1339_0" gradientUnits="userSpaceOnUse">
			<stop stop-color="#010101" stop-opacity="0.000000"/>
			<stop offset="0.360000" stop-color="#010101" stop-opacity="0.360784"/>
			<stop offset="0.950000" stop-color="#010101"/>
		</linearGradient>
		<linearGradient x1="305.357147" y1="231.564178" x2="421.313751" y2="-10.614601" id="paint_linear_108_1343_0" gradientUnits="userSpaceOnUse">
			<stop stop-color="#FFFFFF" stop-opacity="0.000000"/>
			<stop offset="0.070000" stop-color="#FFFFFF" stop-opacity="0.219608"/>
			<stop offset="0.160000" stop-color="#FFFFFF" stop-opacity="0.450980"/>
			<stop offset="0.250000" stop-color="#FFFFFF" stop-opacity="0.650980"/>
			<stop offset="0.330000" stop-color="#FFFFFF" stop-opacity="0.800000"/>
			<stop offset="0.400000" stop-color="#FFFFFF" stop-opacity="0.909804"/>
			<stop offset="0.460000" stop-color="#FFFFFF" stop-opacity="0.980392"/>
			<stop offset="0.510000" stop-color="#FFFFFF"/>
		</linearGradient>
		<linearGradient x1="227.281128" y1="178.444366" x2="288.598877" y2="41.194923" id="paint_linear_108_1344_0" gradientUnits="userSpaceOnUse">
			<stop stop-color="#FFFFFF" stop-opacity="0.000000"/>
			<stop offset="0.070000" stop-color="#FFFFFF" stop-opacity="0.219608"/>
			<stop offset="0.160000" stop-color="#FFFFFF" stop-opacity="0.450980"/>
			<stop offset="0.250000" stop-color="#FFFFFF" stop-opacity="0.650980"/>
			<stop offset="0.330000" stop-color="#FFFFFF" stop-opacity="0.800000"/>
			<stop offset="0.400000" stop-color="#FFFFFF" stop-opacity="0.909804"/>
			<stop offset="0.460000" stop-color="#FFFFFF" stop-opacity="0.980392"/>
			<stop offset="0.510000" stop-color="#FFFFFF"/>
		</linearGradient>
		<linearGradient x1="532.603516" y1="641.321716" x2="547.465454" y2="514.949524" id="paint_linear_108_1346_0" gradientUnits="userSpaceOnUse">
			<stop stop-color="#010101" stop-opacity="0.000000"/>
			<stop offset="0.950000" stop-color="#010101"/>
		</linearGradient>
		<linearGradient x1="131.075714" y1="178.519150" x2="125.169220" y2="628.054077" id="paint_linear_108_1348_0" gradientUnits="userSpaceOnUse">
			<stop stop-color="#FFFFFF" stop-opacity="0.000000"/>
			<stop offset="0.070000" stop-color="#FFFFFF" stop-opacity="0.219608"/>
			<stop offset="0.160000" stop-color="#FFFFFF" stop-opacity="0.450980"/>
			<stop offset="0.250000" stop-color="#FFFFFF" stop-opacity="0.650980"/>
			<stop offset="0.330000" stop-color="#FFFFFF" stop-opacity="0.800000"/>
			<stop offset="0.400000" stop-color="#FFFFFF" stop-opacity="0.909804"/>
			<stop offset="0.460000" stop-color="#FFFFFF" stop-opacity="0.980392"/>
			<stop offset="0.510000" stop-color="#FFFFFF"/>
		</linearGradient>
		<linearGradient x1="-122.779724" y1="616.073853" x2="-116.096924" y2="758.302612" id="paint_linear_108_1350_0" gradientUnits="userSpaceOnUse">
			<stop stop-color="#010101" stop-opacity="0.000000"/>
			<stop offset="0.950000" stop-color="#010101"/>
		</linearGradient>
		<linearGradient x1="753.738708" y1="3809.096924" x2="1059.929443" y2="3833.427734" id="paint_linear_108_1358_0" gradientUnits="userSpaceOnUse">
			<stop stop-color="#010101" stop-opacity="0.000000"/>
			<stop offset="0.950000" stop-color="#010101"/>
		</linearGradient>
		<linearGradient x1="763.124573" y1="201.348587" x2="793.421631" y2="203.628159" id="paint_linear_108_1359_0" gradientUnits="userSpaceOnUse">
			<stop stop-color="#FFFFFF" stop-opacity="0.000000"/>
			<stop offset="0.070000" stop-color="#FFFFFF" stop-opacity="0.219608"/>
			<stop offset="0.160000" stop-color="#FFFFFF" stop-opacity="0.450980"/>
			<stop offset="0.250000" stop-color="#FFFFFF" stop-opacity="0.650980"/>
			<stop offset="0.330000" stop-color="#FFFFFF" stop-opacity="0.800000"/>
			<stop offset="0.400000" stop-color="#FFFFFF" stop-opacity="0.909804"/>
			<stop offset="0.460000" stop-color="#FFFFFF" stop-opacity="0.980392"/>
			<stop offset="0.510000" stop-color="#FFFFFF"/>
		</linearGradient>
		<linearGradient x1="771.585876" y1="173.190964" x2="781.923767" y2="173.955963" id="paint_linear_108_1360_0" gradientUnits="userSpaceOnUse">
			<stop stop-color="#010101" stop-opacity="0.000000"/>
			<stop offset="0.950000" stop-color="#010101"/>
		</linearGradient>
		<linearGradient x1="694.964355" y1="643.810852" x2="696.670105" y2="711.810913" id="paint_linear_108_1361_0" gradientUnits="userSpaceOnUse">
			<stop stop-color="#010101" stop-opacity="0.000000"/>
			<stop offset="0.950000" stop-color="#010101"/>
		</linearGradient>
		<linearGradient x1="763.751099" y1="634.280884" x2="697.350342" y2="700.049988" id="paint_linear_108_1362_0" gradientUnits="userSpaceOnUse">
			<stop stop-color="#010101" stop-opacity="0.000000"/>
			<stop offset="0.950000" stop-color="#010101"/>
		</linearGradient>
		<linearGradient x1="1029.648926" y1="361.966309" x2="4589.130371" y2="250.867676" id="paint_linear_108_1363_0" gradientUnits="userSpaceOnUse">
			<stop stop-color="#FFFFFF" stop-opacity="0.000000"/>
			<stop offset="0.070000" stop-color="#FFFFFF" stop-opacity="0.219608"/>
			<stop offset="0.160000" stop-color="#FFFFFF" stop-opacity="0.450980"/>
			<stop offset="0.250000" stop-color="#FFFFFF" stop-opacity="0.650980"/>
			<stop offset="0.330000" stop-color="#FFFFFF" stop-opacity="0.800000"/>
			<stop offset="0.400000" stop-color="#FFFFFF" stop-opacity="0.909804"/>
			<stop offset="0.460000" stop-color="#FFFFFF" stop-opacity="0.980392"/>
			<stop offset="0.510000" stop-color="#FFFFFF"/>
		</linearGradient>
		<linearGradient x1="202.753265" y1="251.870056" x2="209.471497" y2="669.342163" id="paint_linear_108_1364_0" gradientUnits="userSpaceOnUse">
			<stop stop-color="#FFFFFF" stop-opacity="0.000000"/>
			<stop offset="0.070000" stop-color="#FFFFFF" stop-opacity="0.219608"/>
			<stop offset="0.160000" stop-color="#FFFFFF" stop-opacity="0.450980"/>
			<stop offset="0.250000" stop-color="#FFFFFF" stop-opacity="0.650980"/>
			<stop offset="0.330000" stop-color="#FFFFFF" stop-opacity="0.800000"/>
			<stop offset="0.400000" stop-color="#FFFFFF" stop-opacity="0.909804"/>
			<stop offset="0.460000" stop-color="#FFFFFF" stop-opacity="0.980392"/>
			<stop offset="0.510000" stop-color="#FFFFFF"/>
		</linearGradient>
		<linearGradient x1="306.237610" y1="274.989319" x2="302.512878" y2="557.692566" id="paint_linear_108_1365_0" gradientUnits="userSpaceOnUse">
			<stop stop-color="#FFFFFF" stop-opacity="0.000000"/>
			<stop offset="0.070000" stop-color="#FFFFFF" stop-opacity="0.219608"/>
			<stop offset="0.160000" stop-color="#FFFFFF" stop-opacity="0.450980"/>
			<stop offset="0.250000" stop-color="#FFFFFF" stop-opacity="0.650980"/>
			<stop offset="0.330000" stop-color="#FFFFFF" stop-opacity="0.800000"/>
			<stop offset="0.400000" stop-color="#FFFFFF" stop-opacity="0.909804"/>
			<stop offset="0.460000" stop-color="#FFFFFF" stop-opacity="0.980392"/>
			<stop offset="0.510000" stop-color="#FFFFFF"/>
		</linearGradient>
		<linearGradient x1="622.192322" y1="466.705414" x2="633.823730" y2="-111.464600" id="paint_linear_108_1366_0" gradientUnits="userSpaceOnUse">
			<stop stop-color="#010101" stop-opacity="0.000000"/>
			<stop offset="0.950000" stop-color="#010101"/>
		</linearGradient>
		<linearGradient x1="621.241638" y1="467.043884" x2="632.867920" y2="-111.126404" id="paint_linear_108_1367_0" gradientUnits="userSpaceOnUse">
			<stop stop-color="#010101" stop-opacity="0.000000"/>
			<stop offset="0.950000" stop-color="#010101"/>
		</linearGradient>
		<linearGradient x1="527.090027" y1="464.353455" x2="538.735168" y2="-113.816833" id="paint_linear_108_1368_0" gradientUnits="userSpaceOnUse">
			<stop stop-color="#010101" stop-opacity="0.000000"/>
			<stop offset="0.950000" stop-color="#010101"/>
		</linearGradient>
		<linearGradient x1="526.204590" y1="464.693237" x2="537.848022" y2="-113.477020" id="paint_linear_108_1369_0" gradientUnits="userSpaceOnUse">
			<stop stop-color="#010101" stop-opacity="0.000000"/>
			<stop offset="0.950000" stop-color="#010101"/>
		</linearGradient>
		<linearGradient x1="620.330750" y1="468.544952" x2="631.975891" y2="-109.625275" id="paint_linear_108_1370_0" gradientUnits="userSpaceOnUse">
			<stop stop-color="#010101" stop-opacity="0.000000"/>
			<stop offset="0.950000" stop-color="#010101"/>
		</linearGradient>
		<linearGradient x1="526.272705" y1="466.235352" x2="537.898987" y2="-111.934937" id="paint_linear_108_1371_0" gradientUnits="userSpaceOnUse">
			<stop stop-color="#010101" stop-opacity="0.000000"/>
			<stop offset="0.950000" stop-color="#010101"/>
		</linearGradient>
		<linearGradient x1="574.347961" y1="467.397156" x2="585.996094" y2="-110.751678" id="paint_linear_108_1372_0" gradientUnits="userSpaceOnUse">
			<stop stop-color="#010101" stop-opacity="0.000000"/>
			<stop offset="0.950000" stop-color="#010101"/>
		</linearGradient>
		<linearGradient x1="576.171631" y1="464.844116" x2="587.820190" y2="-113.326172" id="paint_linear_108_1373_0" gradientUnits="userSpaceOnUse">
			<stop stop-color="#010101" stop-opacity="0.000000"/>
			<stop offset="0.950000" stop-color="#010101"/>
		</linearGradient>
		<linearGradient x1="231.041382" y1="479.399353" x2="477.657013" y2="680.679321" id="paint_linear_108_1377_0" gradientUnits="userSpaceOnUse">
			<stop stop-color="#FFFFFF" stop-opacity="0.000000"/>
			<stop offset="0.070000" stop-color="#FFFFFF" stop-opacity="0.219608"/>
			<stop offset="0.160000" stop-color="#FFFFFF" stop-opacity="0.450980"/>
			<stop offset="0.250000" stop-color="#FFFFFF" stop-opacity="0.650980"/>
			<stop offset="0.330000" stop-color="#FFFFFF" stop-opacity="0.800000"/>
			<stop offset="0.400000" stop-color="#FFFFFF" stop-opacity="0.909804"/>
			<stop offset="0.460000" stop-color="#FFFFFF" stop-opacity="0.980392"/>
			<stop offset="0.510000" stop-color="#FFFFFF"/>
		</linearGradient>
		<linearGradient x1="579.914673" y1="259.863892" x2="578.127197" y2="395.025726" id="paint_linear_108_1380_0" gradientUnits="userSpaceOnUse">
			<stop stop-color="#FFFFFF" stop-opacity="0.000000"/>
			<stop offset="0.070000" stop-color="#FFFFFF" stop-opacity="0.219608"/>
			<stop offset="0.160000" stop-color="#FFFFFF" stop-opacity="0.450980"/>
			<stop offset="0.250000" stop-color="#FFFFFF" stop-opacity="0.650980"/>
			<stop offset="0.330000" stop-color="#FFFFFF" stop-opacity="0.800000"/>
			<stop offset="0.400000" stop-color="#FFFFFF" stop-opacity="0.909804"/>
			<stop offset="0.460000" stop-color="#FFFFFF" stop-opacity="0.980392"/>
			<stop offset="0.510000" stop-color="#FFFFFF"/>
		</linearGradient>
		<linearGradient x1="579.914673" y1="369.863892" x2="578.127197" y2="505.025726" id="paint_linear_108_1381_0" gradientUnits="userSpaceOnUse">
			<stop stop-color="#FFFFFF" stop-opacity="0.000000"/>
			<stop offset="0.070000" stop-color="#FFFFFF" stop-opacity="0.219608"/>
			<stop offset="0.160000" stop-color="#FFFFFF" stop-opacity="0.450980"/>
			<stop offset="0.250000" stop-color="#FFFFFF" stop-opacity="0.650980"/>
			<stop offset="0.330000" stop-color="#FFFFFF" stop-opacity="0.800000"/>
			<stop offset="0.400000" stop-color="#FFFFFF" stop-opacity="0.909804"/>
			<stop offset="0.460000" stop-color="#FFFFFF" stop-opacity="0.980392"/>
			<stop offset="0.510000" stop-color="#FFFFFF"/>
		</linearGradient>
		<linearGradient x1="216.091415" y1="295.281433" x2="215.863953" y2="313.481445" id="paint_linear_108_1382_0" gradientUnits="userSpaceOnUse">
			<stop stop-color="#FFFFFF" stop-opacity="0.000000"/>
			<stop offset="0.070000" stop-color="#FFFFFF" stop-opacity="0.219608"/>
			<stop offset="0.160000" stop-color="#FFFFFF" stop-opacity="0.450980"/>
			<stop offset="0.250000" stop-color="#FFFFFF" stop-opacity="0.650980"/>
			<stop offset="0.330000" stop-color="#FFFFFF" stop-opacity="0.800000"/>
			<stop offset="0.400000" stop-color="#FFFFFF" stop-opacity="0.909804"/>
			<stop offset="0.460000" stop-color="#FFFFFF" stop-opacity="0.980392"/>
			<stop offset="0.510000" stop-color="#FFFFFF"/>
		</linearGradient>
		<linearGradient x1="135.367767" y1="348.051544" x2="250.478043" y2="260.764862" id="paint_linear_108_1385_0" gradientUnits="userSpaceOnUse">
			<stop stop-color="#010101" stop-opacity="0.000000"/>
			<stop offset="0.950000" stop-color="#010101"/>
		</linearGradient>
		<linearGradient x1="185.206757" y1="367.988129" x2="350.063385" y2="247.480988" id="paint_linear_108_1387_0" gradientUnits="userSpaceOnUse">
			<stop stop-color="#010101" stop-opacity="0.000000"/>
			<stop offset="0.950000" stop-color="#010101"/>
		</linearGradient>
		<linearGradient x1="290.150665" y1="426.751251" x2="533.016113" y2="188.731720" id="paint_linear_108_1389_0" gradientUnits="userSpaceOnUse">
			<stop stop-color="#010101" stop-opacity="0.000000"/>
			<stop offset="0.950000" stop-color="#010101"/>
		</linearGradient>
		<linearGradient x1="398.910065" y1="495.864746" x2="761.898438" y2="162.472534" id="paint_linear_108_1391_0" gradientUnits="userSpaceOnUse">
			<stop stop-color="#010101" stop-opacity="0.000000"/>
			<stop offset="0.360000" stop-color="#010101" stop-opacity="0.360784"/>
			<stop offset="0.950000" stop-color="#010101"/>
		</linearGradient>
		<linearGradient x1="247.168625" y1="258.751068" x2="420.936768" y2="114.556061" id="paint_linear_108_1395_0" gradientUnits="userSpaceOnUse">
			<stop stop-color="#FFFFFF" stop-opacity="0.000000"/>
			<stop offset="0.070000" stop-color="#FFFFFF" stop-opacity="0.219608"/>
			<stop offset="0.160000" stop-color="#FFFFFF" stop-opacity="0.450980"/>
			<stop offset="0.250000" stop-color="#FFFFFF" stop-opacity="0.650980"/>
			<stop offset="0.330000" stop-color="#FFFFFF" stop-opacity="0.800000"/>
			<stop offset="0.400000" stop-color="#FFFFFF" stop-opacity="0.909804"/>
			<stop offset="0.460000" stop-color="#FFFFFF" stop-opacity="0.980392"/>
			<stop offset="0.510000" stop-color="#FFFFFF"/>
		</linearGradient>
		<linearGradient x1="260.782410" y1="256.516724" x2="374.615662" y2="158.211441" id="paint_linear_108_1396_0" gradientUnits="userSpaceOnUse">
			<stop stop-color="#FFFFFF" stop-opacity="0.000000"/>
			<stop offset="0.070000" stop-color="#FFFFFF" stop-opacity="0.219608"/>
			<stop offset="0.160000" stop-color="#FFFFFF" stop-opacity="0.450980"/>
			<stop offset="0.250000" stop-color="#FFFFFF" stop-opacity="0.650980"/>
			<stop offset="0.330000" stop-color="#FFFFFF" stop-opacity="0.800000"/>
			<stop offset="0.400000" stop-color="#FFFFFF" stop-opacity="0.909804"/>
			<stop offset="0.460000" stop-color="#FFFFFF" stop-opacity="0.980392"/>
			<stop offset="0.510000" stop-color="#FFFFFF"/>
		</linearGradient>
		<linearGradient x1="126.369064" y1="422.744537" x2="164.553284" y2="423.846375" id="paint_linear_108_1398_0" gradientUnits="userSpaceOnUse">
			<stop stop-color="#FFFFFF" stop-opacity="0.000000"/>
			<stop offset="0.070000" stop-color="#FFFFFF" stop-opacity="0.219608"/>
			<stop offset="0.160000" stop-color="#FFFFFF" stop-opacity="0.450980"/>
			<stop offset="0.250000" stop-color="#FFFFFF" stop-opacity="0.650980"/>
			<stop offset="0.330000" stop-color="#FFFFFF" stop-opacity="0.800000"/>
			<stop offset="0.400000" stop-color="#FFFFFF" stop-opacity="0.909804"/>
			<stop offset="0.460000" stop-color="#FFFFFF" stop-opacity="0.980392"/>
			<stop offset="0.510000" stop-color="#FFFFFF"/>
		</linearGradient>
		<linearGradient x1="53.076977" y1="325.199768" x2="156.506042" y2="336.324371" id="paint_linear_108_1401_0" gradientUnits="userSpaceOnUse">
			<stop stop-color="#010101" stop-opacity="0.000000"/>
			<stop offset="0.950000" stop-color="#010101"/>
		</linearGradient>
		<linearGradient x1="77.875038" y1="473.932495" x2="178.590027" y2="485.226685" id="paint_linear_108_1402_0" gradientUnits="userSpaceOnUse">
			<stop stop-color="#010101" stop-opacity="0.000000"/>
			<stop offset="0.950000" stop-color="#010101"/>
		</linearGradient>
		<linearGradient x1="480.646332" y1="631.511536" x2="438.194916" y2="435.449860" id="paint_linear_108_1405_0" gradientUnits="userSpaceOnUse">
			<stop stop-color="#010101" stop-opacity="0.000000"/>
			<stop offset="0.950000" stop-color="#010101"/>
		</linearGradient>
		<linearGradient x1="481.668457" y1="169.891785" x2="312.592957" y2="310.039673" id="paint_linear_108_1416_0" gradientUnits="userSpaceOnUse">
			<stop stop-color="#010101" stop-opacity="0.000000"/>
			<stop offset="0.950000" stop-color="#010101"/>
		</linearGradient>
	</defs>
	<g opacity="0.240000" style="mix-blend-mode:normal">
		<path id="Path" d="M182.7 688.61C136.25 693.28 88.38 698.41 47.51 721.26C42.04 724.32 36.48 727.94 33.46 733.45C27.41 744.55 34.28 759.17 44.95 765.85C55.62 772.53 68.78 773.29 81.34 773.84C304.91 783.58 528.81 779.76 752.56 775.95C817.54 774.85 883.55 773.59 945.82 754.71C957.01 751.33 969.32 746.26 973.53 735.21C979.04 720.75 966.47 704.73 951.8 700.23C937.12 695.73 921.47 699.09 906.29 701.06C853.59 707.88 800.44 697.44 747.97 689.09C645.27 672.78 538.7 659.51 434.67 657.03C399.21 656.21 368.92 668.51 334.21 673.37C284.09 680.43 233.09 683.54 182.7 688.61Z" fill="#505F98" fill-opacity="1.000000" fill-rule="nonzero"/>
	</g>
	<path id="Rectangle" d="M6.1e-5 255.32L115.83 19.4L184.81 53.18L68.98 289.1L6.1e-5 255.32Z" fill="#FFFFFF" fill-opacity="1.000000" fill-rule="nonzero"/>
	<path id="Rectangle" d="M26.84 248.05L40.95 219.22L87.42 241.9L73.3 270.73L26.84 248.05Z" fill="#505F98" fill-opacity="1.000000" fill-rule="nonzero"/>
	<path id="Rectangle" d="M26.84 248.05L40.95 219.22L87.42 241.9L73.3 270.73L26.84 248.05Z" fill="url(#paint_linear_108_1333_0)" fill-opacity="1.000000" fill-rule="nonzero"/>
	<path id="Rectangle" d="M40.96 219.44L55.07 190.61L101.53 213.29L87.42 242.12L40.96 219.44Z" fill="#505F98" fill-opacity="1.000000" fill-rule="nonzero"/>
	<path id="Rectangle" d="M40.96 219.44L55.07 190.61L101.53 213.29L87.42 242.12L40.96 219.44Z" fill="url(#paint_linear_108_1335_0)" fill-opacity="1.000000" fill-rule="nonzero"/>
	<path id="Rectangle" d="M55.05 190.82L69.17 161.99L115.63 184.67L101.52 213.5L55.05 190.82Z" fill="#505F98" fill-opacity="1.000000" fill-rule="nonzero"/>
	<path id="Rectangle" d="M55.05 190.82L69.17 161.99L115.63 184.67L101.52 213.5L55.05 190.82Z" fill="url(#paint_linear_108_1337_0)" fill-opacity="1.000000" fill-rule="nonzero"/>
	<path id="Rectangle" d="M69.19 162.23L83.3 133.4L129.77 156.08L115.65 184.92L69.19 162.23Z" fill="#505F98" fill-opacity="1.000000" fill-rule="nonzero"/>
	<path id="Rectangle" d="M69.19 162.23L83.3 133.4L129.77 156.08L115.65 184.92L69.19 162.23Z" fill="url(#paint_linear_108_1339_0)" fill-opacity="1.000000" fill-rule="nonzero"/>
	<path id="Rectangle" d="M83.29 133.59L97.41 104.76L143.87 127.44L129.76 156.28L83.29 133.59Z" fill="#505F98" fill-opacity="1.000000" fill-rule="nonzero"/>
	<path id="Rectangle" d="M97.41 105.01L111.52 76.17L157.99 98.85L143.87 127.69L97.41 105.01Z" fill="#505F98" fill-opacity="1.000000" fill-rule="nonzero"/>
	<path id="Rectangle" d="M111.51 76.39L125.62 47.55L172.08 70.23L157.97 99.07L111.51 76.39Z" fill="#505F98" fill-opacity="1.000000" fill-rule="nonzero"/>
	<path id="Rectangle" d="M95.82 108.59L109.94 79.76L156.4 102.44L142.29 131.28L95.82 108.59Z" fill="url(#paint_linear_108_1343_0)" fill-opacity="1.000000" fill-rule="nonzero"/>
	<path id="Rectangle" d="M109.95 79.96L124.06 51.13L170.53 73.81L156.41 102.65L109.95 79.96Z" fill="url(#paint_linear_108_1344_0)" fill-opacity="1.000000" fill-rule="nonzero"/>
	<rect id="Rectangle" x="410.468384" y="573.000000" width="98.067917" height="82.000000" fill="#505F98" fill-opacity="1.000000"/>
	<rect id="Rectangle" x="410.468384" y="573.000000" width="98.067917" height="82.000000" fill="url(#paint_linear_108_1346_0)" fill-opacity="1.000000"/>
	<rect id="Rectangle" x="202.324219" y="231.000000" rx="9.370000" width="518.358948" height="355.000000" fill="#505F98" fill-opacity="1.000000"/>
	<g opacity="0.650000" style="mix-blend-mode:normal">
		<path id="Path" d="M703.67 260.43L703.67 554.56C703.68 559.44 701.76 564.13 698.32 567.58C694.88 571.04 690.21 572.99 685.33 573L233.67 573C228.79 572.98 224.12 571.03 220.68 567.58C217.24 564.12 215.32 559.44 215.33 554.56L215.33 260.43C215.32 255.55 217.24 250.87 220.68 247.41C224.12 243.96 228.79 242.01 233.67 242L685.33 242C690.21 242 694.88 243.95 698.32 247.41C701.76 250.87 703.68 255.55 703.67 260.43Z" fill="url(#paint_linear_108_1348_0)" fill-opacity="1.000000" fill-rule="nonzero"/>
	</g>
	<rect id="Rectangle" x="365.437134" y="645.000000" width="206.142761" height="21.000000" fill="#505F98" fill-opacity="1.000000"/>
	<rect id="Rectangle" x="410.468384" y="633.000000" width="98.067917" height="12.000000" fill="url(#paint_linear_108_1350_0)" fill-opacity="1.000000"/>
	<path id="Shape" d="M565.576 79.7145L565.576 59.2411L551.897 59.2411C550.32 52.0725 547.387 45.2671 543.256 39.1867L553.794 28.709L539.314 14.1659L528.776 24.476C521.87 19.493 513.961 16.0545 505.592 14.3964L505.592 0L485.021 0L485.021 14.0821C476.732 15.2276 468.808 18.2143 461.837 22.8205L453.407 14.0821L438.527 28.3318L446.768 36.8187C441.655 43.4409 438.058 51.0933 436.229 59.2411L421.476 59.2411L421.476 79.7145L435.724 79.7145C436.944 89.191 440.507 98.2193 446.093 105.993L437.22 114.647L451.784 129.316L460.72 120.494C468.033 125.497 476.406 128.76 485.19 130.029L485.19 143L505.761 143L505.761 129.714C513.593 128.17 521.028 125.062 527.617 120.578L538.303 131.6L553.183 117.351L542.328 106.181C548.007 98.4104 551.63 89.3456 552.867 79.8193L565.576 79.7145ZM459.435 72.1496C459.411 91.211 474.934 106.682 494.105 106.705C503.317 106.733 512.161 103.113 518.682 96.6445C525.204 90.1761 528.866 81.3922 528.861 72.2335C528.884 53.1721 513.361 37.7011 494.19 37.6779C475.018 37.6548 459.458 53.0883 459.435 72.1496Z" clip-rule="evenodd" fill="#505F98" fill-opacity="1.000000" fill-rule="evenodd"/>
	<path id="Shape" d="M640.71 105.396L641.628 93.3542L633.594 92.7708C633.004 88.4774 631.587 84.3387 629.42 80.5833L636.098 74.8958L628.252 65.7083L621.636 71.3125C617.838 68.0811 613.38 65.7138 608.573 64.375L609.22 55.8958L597.179 55L596.553 63.3333C591.661 63.6715 586.905 65.095 582.634 67.5L578.105 62L568.756 69.7083L573.201 75.0625C569.936 78.7428 567.509 83.0854 566.085 87.7917L557.467 87.1458L556.569 99.1667L564.687 99.7917C564.977 105.414 566.663 110.876 569.591 115.688L564.019 120.396L571.887 129.583L577.521 124.792C581.578 128.056 586.334 130.344 591.419 131.479L590.835 139.104L602.876 140L603.481 132.188C608.129 131.625 612.615 130.13 616.67 127.792L622.429 134.729L631.778 127.021L625.914 119.958C629.566 115.641 632.071 110.475 633.198 104.938L640.71 105.396ZM578.931 96.2429C578.076 107.436 586.469 117.203 597.68 118.062C603.074 118.487 608.415 116.747 612.52 113.228C616.625 109.708 619.155 104.7 619.55 99.3125C620.392 88.1187 611.989 78.3609 600.777 77.5135C589.565 76.6662 579.786 85.05 578.931 96.2429Z" clip-rule="evenodd" fill="#505F98" fill-opacity="1.000000" fill-rule="evenodd"/>
	<path id="Path" d="M795.73 206.96L795.73 690.81C795.7 700.84 787.65 708.96 777.71 709L775.64 709C765.72 708.95 757.7 700.82 757.7 690.81L757.7 206.96L775.78 159L795.73 206.96Z" fill="#505F98" fill-opacity="1.000000" fill-rule="nonzero"/>
	<rect id="Rectangle" x="774.720581" y="207.000000" width="21.014553" height="463.000000" fill="url(#paint_linear_108_1358_0)" fill-opacity="1.000000"/>
	<g opacity="0.650000" style="mix-blend-mode:normal">
		<path id="Path" d="M795.73 207L757.7 206.26L769.42 174.2L775.7 157L782.61 174.2L795.73 207Z" fill="url(#paint_linear_108_1359_0)" fill-opacity="1.000000" fill-rule="nonzero"/>
	</g>
	<path id="Path" d="M782.72 175L769.71 175L775.91 158L782.72 175Z" fill="url(#paint_linear_108_1360_0)" fill-opacity="1.000000" fill-rule="nonzero"/>
	<rect id="Rectangle" x="755.707397" y="663.000000" width="40.027721" height="17.000000" fill="url(#paint_linear_108_1361_0)" fill-opacity="1.000000"/>
	<path id="Path" d="M795.73 676L795.73 691.38C795.7 701.64 787.65 709.96 777.71 710L775.64 710C765.72 709.95 757.7 701.63 757.7 691.38L757.7 676L795.73 676Z" fill="url(#paint_linear_108_1362_0)" fill-opacity="1.000000" fill-rule="nonzero"/>
	<path id="Path" d="M703.67 260.51L703.67 267L215.33 267L215.33 260.51C215.32 255.61 217.24 250.91 220.68 247.44C224.12 243.96 228.79 242.01 233.67 242L685.33 242C690.2 242 694.88 243.96 698.32 247.43C701.76 250.9 703.68 255.61 703.67 260.51Z" fill="url(#paint_linear_108_1363_0)" fill-opacity="1.000000" fill-rule="nonzero"/>
	<rect id="Rectangle" x="225.340210" y="299.000000" width="47.032570" height="227.000000" fill="url(#paint_linear_108_1364_0)" fill-opacity="1.000000"/>
	<rect id="Rectangle" x="343.421875" y="315.000000" width="221.153152" height="209.000000" fill="url(#paint_linear_108_1365_0)" fill-opacity="1.000000"/>
	<rect id="Rectangle" x="394.457275" y="413.000000" width="7.004851" height="9.000000" fill="url(#paint_linear_108_1366_0)" fill-opacity="1.000000"/>
	<rect id="Rectangle" x="394.457275" y="371.000000" width="7.004851" height="9.000000" fill="url(#paint_linear_108_1367_0)" fill-opacity="1.000000"/>
	<rect id="Rectangle" x="299.391479" y="413.000000" width="7.004851" height="9.000000" fill="url(#paint_linear_108_1368_0)" fill-opacity="1.000000"/>
	<rect id="Rectangle" x="299.391479" y="371.000000" width="7.004851" height="9.000000" fill="url(#paint_linear_108_1369_0)" fill-opacity="1.000000"/>
	<rect id="Rectangle" x="394.457275" y="326.000000" width="7.004851" height="9.000000" fill="url(#paint_linear_108_1370_0)" fill-opacity="1.000000"/>
	<rect id="Rectangle" x="300.392090" y="326.000000" width="7.004851" height="9.000000" fill="url(#paint_linear_108_1371_0)" fill-opacity="1.000000"/>
	<rect id="Rectangle" x="348.425415" y="326.000000" width="7.004851" height="9.000000" fill="url(#paint_linear_108_1372_0)" fill-opacity="1.000000"/>
	<rect id="Rectangle" x="348.425415" y="413.000000" width="7.004851" height="9.000000" fill="url(#paint_linear_108_1373_0)" fill-opacity="1.000000"/>
	<path id="Shape" d="M312.4 411L390.454 411L390.454 338L312.4 338L312.4 411ZM382.592 403.282L320.262 403.282L320.262 345.656L382.592 345.656L382.592 403.282Z" clip-rule="evenodd" fill="#505F98" fill-opacity="1.000000" fill-rule="evenodd"/>
	<path id="Shape" d="M312.4 411L390.454 411L390.454 338L312.4 338L312.4 411ZM382.592 403.282L320.262 403.282L320.262 345.656L382.592 345.656L382.592 403.282Z" clip-rule="evenodd" fill="url(#paint_linear_108_1377_0)" fill-opacity="1.000000" fill-rule="evenodd"/>
	<rect id="Rectangle" x="596.597168" y="279.000000" width="100.069298" height="100.000000" fill="url(#paint_linear_108_1380_0)" fill-opacity="1.000000"/>
	<rect id="Rectangle" x="596.597168" y="389.000000" width="100.069298" height="100.000000" fill="url(#paint_linear_108_1381_0)" fill-opacity="1.000000"/>
	<g opacity="0.650000" style="mix-blend-mode:normal">
		<rect id="Rectangle" x="225.340210" y="298.000000" width="47.032570" height="13.000000" fill="url(#paint_linear_108_1382_0)" fill-opacity="1.000000"/>
	</g>
	<path id="Rectangle" d="M22.3 229.82L227.43 65.29L275.54 125.11L70.41 289.65L22.3 229.82Z" fill="#FFFFFF" fill-opacity="1.000000" fill-rule="nonzero"/>
	<path id="Rectangle" d="M51.02 234.45L76.09 214.23L108.67 254.52L83.61 274.74L51.02 234.45Z" fill="#505F98" fill-opacity="1.000000" fill-rule="nonzero"/>
	<path id="Rectangle" d="M51.02 234.45L76.09 214.23L108.67 254.52L83.61 274.74L51.02 234.45Z" fill="url(#paint_linear_108_1385_0)" fill-opacity="1.000000" fill-rule="nonzero"/>
	<path id="Rectangle" d="M74.64 214.68L99.67 194.56L132.11 234.79L107.08 254.91L74.64 214.68Z" fill="#505F98" fill-opacity="1.000000" fill-rule="nonzero"/>
	<path id="Rectangle" d="M74.64 214.68L99.67 194.56L132.11 234.79L107.08 254.91L74.64 214.68Z" fill="url(#paint_linear_108_1387_0)" fill-opacity="1.000000" fill-rule="nonzero"/>
	<path id="Rectangle" d="M99.58 194.76L124.62 174.63L157.05 214.86L132.02 234.99L99.58 194.76Z" fill="#505F98" fill-opacity="1.000000" fill-rule="nonzero"/>
	<path id="Rectangle" d="M99.58 194.76L124.62 174.63L157.05 214.86L132.02 234.99L99.58 194.76Z" fill="url(#paint_linear_108_1389_0)" fill-opacity="1.000000" fill-rule="nonzero"/>
	<path id="Rectangle" d="M124.51 174.84L149.54 154.71L181.98 194.94L156.95 215.07L124.51 174.84Z" fill="#505F98" fill-opacity="1.000000" fill-rule="nonzero"/>
	<path id="Rectangle" d="M124.51 174.84L149.54 154.71L181.98 194.94L156.95 215.07L124.51 174.84Z" fill="url(#paint_linear_108_1391_0)" fill-opacity="1.000000" fill-rule="nonzero"/>
	<path id="Rectangle" d="M150.63 154.38L175.7 134.16L208.28 174.45L183.22 194.67L150.63 154.38Z" fill="#505F98" fill-opacity="1.000000" fill-rule="nonzero"/>
	<path id="Rectangle" d="M175.71 133.99L200.78 113.77L233.36 154.05L208.3 174.27L175.71 133.99Z" fill="#505F98" fill-opacity="1.000000" fill-rule="nonzero"/>
	<path id="Rectangle" d="M199.32 115.05L224.35 94.92L256.79 135.15L231.76 155.28L199.32 115.05Z" fill="#505F98" fill-opacity="1.000000" fill-rule="nonzero"/>
	<path id="Path" d="M229.34 158.21L208.24 175L176.3 134.78L197.4 118L229.34 158.21Z" fill="url(#paint_linear_108_1395_0)" fill-opacity="1.000000" fill-rule="nonzero"/>
	<path id="Rectangle" d="M196.36 117.64L221.4 97.51L253.83 137.74L228.8 157.87L196.36 117.64Z" fill="url(#paint_linear_108_1396_0)" fill-opacity="1.000000" fill-rule="nonzero"/>
	<path id="Path" d="M145.28 239.15L145.28 362L124.27 362L124.27 239.15C124.27 234.61 127.08 230.57 131.28 229.08L131.28 216.82C131.28 214.71 132.96 213 135.03 213C137.09 213 138.77 214.71 138.77 216.82L138.77 229.29C142.69 230.93 145.26 234.82 145.28 239.15Z" fill="#505F98" fill-opacity="1.000000" fill-rule="nonzero"/>
	<path id="Path" d="M145.28 239.15L145.28 362L124.27 362L124.27 239.15C124.27 234.61 127.08 230.57 131.28 229.08L131.28 216.82C131.28 214.71 132.96 213 135.03 213C137.09 213 138.77 214.71 138.77 216.82L138.77 229.29C142.69 230.93 145.26 234.82 145.28 239.15Z" fill="url(#paint_linear_108_1398_0)" fill-opacity="1.000000" fill-rule="nonzero"/>
	<rect id="Rectangle" x="111.261108" y="317.000000" rx="2.245000" width="50.034649" height="9.000000" fill="#505F98" fill-opacity="1.000000"/>
	<path id="Path" d="M135.96 399C127.39 399 120.26 386.18 120.26 377.63L120.26 321L151.28 321L151.28 377.63C151.28 386.18 144.51 399 135.96 399Z" fill="#505F98" fill-opacity="1.000000" fill-rule="nonzero"/>
	<rect id="Rectangle" x="111.261108" y="317.000000" rx="2.245000" width="50.034649" height="9.000000" fill="url(#paint_linear_108_1401_0)" fill-opacity="1.000000"/>
	<path id="Path" d="M135.96 399C127.39 399 120.26 386.36 120.26 377.93L120.26 326L151.28 326L151.28 377.93C151.28 386.36 144.51 399 135.96 399Z" fill="url(#paint_linear_108_1402_0)" fill-opacity="1.000000" fill-rule="nonzero"/>
	<path id="Path" d="M336.05 459C335.38 455.43 334.96 450.39 336.25 450.04C338.98 449.27 336.05 459 336.05 459Z" fill="#28353D" fill-opacity="1.000000" fill-rule="nonzero"/>
	<path id="Path" d="M479.31 654.5C478.83 667.1 469.07 713.38 468.75 726C468.75 730.2 469.87 736.64 468.52 740.69C465.73 749.28 455.84 748.1 454.55 743.04L454.06 740.53C449.48 716.01 456.85 688.19 454.06 656.18C452.39 636.64 444.62 598.96 439.52 598.71C436.84 598.71 375.58 727.85 370.26 735.8C367.64 739.81 360.26 739.18 356.69 742.42C353.12 745.65 386.44 644.51 400.41 591.07C403.67 580.03 405.79 568.7 406.75 557.25C407.13 550.64 405 548.41 411.1 546.46C415.33 545.11 421.18 545.49 425.71 545.18C430.63 544.8 476.42 544.71 476.42 547.95C475.97 565.5 480.5 625.41 479.31 654.5Z" fill="#606161" fill-opacity="1.000000" fill-rule="nonzero"/>
	<path id="Path" d="M479.31 654.5C478.83 667.1 469.07 713.38 468.75 726C468.75 730.2 469.87 736.64 468.52 740.69C465.73 749.28 455.84 748.1 454.55 743.04L454.06 740.53C449.48 716.01 456.85 688.19 454.06 656.18C452.39 636.64 444.62 598.96 439.52 598.71C436.84 598.71 375.58 727.85 370.26 735.8C367.64 739.81 360.26 739.18 356.69 742.42C353.12 745.65 386.44 644.51 400.41 591.07C403.67 580.03 405.79 568.7 406.75 557.25C407.13 550.64 405 548.41 411.1 546.46C415.33 545.11 421.18 545.49 425.71 545.18C430.63 544.8 476.42 544.71 476.42 547.95C475.97 565.5 480.5 625.41 479.31 654.5Z" fill="url(#paint_linear_108_1405_0)" fill-opacity="1.000000" fill-rule="nonzero"/>
	<path id="Path" d="M425.24 386.14C424.86 382.16 422.97 380 421.13 380C419.29 380 418.16 382.12 418.54 386.14C418.63 389.12 420.88 391.59 423.85 392C425.71 392 425.65 390.13 425.24 386.14Z" fill="#FFCD9C" fill-opacity="1.000000" fill-rule="nonzero"/>
	<path id="Path" d="M457.63 386.15C457.88 382.16 459.72 380 461.62 380C463.52 380 464.75 382.12 464.46 386.15C464.43 389.17 462.19 391.68 459.24 392C457.36 392 457.34 390.15 457.63 386.15Z" fill="#FFCD9C" fill-opacity="1.000000" fill-rule="nonzero"/>
	<path id="Path" d="M461.36 403.67C461.1 405.77 452.18 415 442.04 415C431.89 415 423.52 406.57 421.75 403.2C419.98 399.83 427.1 356.5 431.22 352.88C435.35 349.26 452.06 351.64 453.46 353.55C456.83 358.08 462.46 395.27 461.36 403.67Z" fill="#F4AD7D" fill-opacity="1.000000" fill-rule="nonzero"/>
	<path id="Path" d="M457.16 370.97C455.79 371.63 450.37 357.84 449.23 355.52C448.1 353.2 448.28 350.82 449.66 350.16C451.04 349.5 453.07 350.87 454.2 353.16C455.34 355.46 458.52 370.33 457.16 370.97Z" fill="#FFCD9C" fill-opacity="1.000000" fill-rule="nonzero"/>
	<path id="Path" d="M426.79 369.98C425.36 369.5 429.15 355.17 429.98 352.7C430.8 350.22 432.66 348.59 434.01 349.08C435.36 349.57 435.92 351.98 435.1 354.48C434.27 356.97 428.14 370.47 426.79 369.98Z" fill="#FFCD9C" fill-opacity="1.000000" fill-rule="nonzero"/>
	<path id="Path" d="M432.47 402L454.24 402L457.5 422.62C445.64 429 438.73 428.3 429.48 421.21L432.47 402Z" fill="#F4AD7D" fill-opacity="1.000000" fill-rule="nonzero"/>
	<path id="Path" d="M441.49 406.13C441.49 405.75 442.39 405.43 443.49 405.43C444.58 405.43 445.49 405.75 445.49 406.13C445.49 406.51 444.61 406.57 443.49 406.57C442.37 406.57 441.49 406.53 441.49 406.13Z" fill="#F4AD7D" fill-opacity="1.000000" fill-rule="nonzero"/>
	<path id="Path" d="M462.52 396.8C463.34 391.89 464.69 356.7 461.39 352.05C458.1 347.39 438.37 344.38 435.38 345.1C428.68 346.73 429.85 351.51 429.85 351.51C427.86 351.54 425.91 352.08 424.19 353.07C421.89 354.61 417.06 376.79 420.92 393.56C422.65 401.1 429.48 407.66 441.27 407.98C455.8 408.36 461.52 402.89 462.52 396.8Z" fill="#606161" fill-opacity="1.000000" fill-rule="nonzero"/>
	<path id="Path" d="M435.46 346.76C437.02 345.44 439.04 344.82 441.06 345.04C447.19 345 453.27 346.14 458.99 348.37C462.16 349.48 465.04 351.31 467.41 353.7C469.8 356.17 470.9 359.62 470.38 363.03C469.33 368.04 464.06 371.14 462.34 375.97C460.95 379.83 461.94 383.57 461.98 387.46C462.01 390.6 461.78 393.74 461.31 396.85C460.34 402.9 454.8 408.34 440.59 407.98C429.14 407.66 422.51 401.14 420.83 393.64C418.55 381.19 419.15 368.38 422.57 356.21C428.75 357.64 435.06 358.36 441.39 358.33C448.11 358.39 454.8 357.61 461.33 356C462.44 362.5 462.42 375.52 462.06 385.25L435.46 346.76Z" fill="#606161" fill-opacity="1.000000" fill-rule="nonzero"/>
	<path id="Path" d="M400.33 418.95C396.89 419.24 393.59 420.38 390.7 422.28C385.77 426.17 385.39 433.43 385.47 439.74C385.31 448.5 385.91 457.25 387.29 465.89C388.77 473.82 391.45 481.44 393.66 489.2C397.14 501.83 398.97 514.86 399.1 527.96C399.1 535.16 398.97 543.07 403.45 548.69C408.35 554.8 417.02 555.99 424.81 556.43C435.87 557.08 446.98 557.17 458.04 556.7C465.46 556.37 473.35 555.64 479.23 551.08C483.91 547.44 494.89 424.28 486.37 421.17C477.85 418.05 468.68 417.25 459.64 416.5C439.37 414.79 420.29 413.43 400.33 418.95Z" fill="#505F98" fill-opacity="1.000000" fill-rule="nonzero"/>
	<path id="Path" d="M464.15 674.29C463.06 688.25 460.47 739 460.47 739L453.86 738.77C449.33 714.39 456.62 686.73 453.86 654.89C452.21 635.46 444.52 597.99 439.48 597.74C440.99 585.22 449.45 587.09 449.45 587.09C455.61 596.29 460.92 606.02 465.32 616.17C470.36 629.37 465.26 660.26 464.15 674.29Z" fill="url(#paint_linear_108_1416_0)" fill-opacity="1.000000" fill-rule="nonzero"/>
	<path id="Path" d="M339.79 740.02C338.76 740.78 337.98 741.83 337.54 743.02C337.3 744 337.4 745.04 337.81 745.96C338.98 748.32 341.19 750.01 343.79 750.55C346.37 751.04 349.01 751.13 351.61 750.81L359.95 750.26C362.08 750.21 364.18 749.87 366.21 749.25C368.24 748.62 369.92 747.19 370.84 745.3C371.33 743.91 371.52 742.43 371.4 740.96C371.4 734.16 368.98 728.63 361.44 730.29C353.53 731.76 346.1 735.1 339.79 740.02Z" fill="#505F98" fill-opacity="1.000000" fill-rule="nonzero"/>
	<path id="Path" d="M478.33 743.06C479.28 743.75 480 744.7 480.4 745.79C480.61 746.68 480.53 747.61 480.16 748.44C479.09 750.58 477.06 752.11 474.67 752.57C472.32 753.03 469.9 753.12 467.51 752.83L459.94 752.32C458.02 752.28 456.1 751.98 454.26 751.43C452.41 750.86 450.88 749.56 450.04 747.85C449.59 746.59 449.42 745.26 449.52 743.93C449.52 737.78 451.7 732.72 458.64 734.28C465.83 735.61 472.59 738.63 478.33 743.06Z" fill="#505F98" fill-opacity="1.000000" fill-rule="nonzero"/>
	<path id="Path" d="M487.52 421C487.52 421 520.23 440.16 530.06 464.38C539.88 488.61 497.88 547 497.88 547L488.89 537.81C488.89 537.81 510.82 493.75 507.43 482.74C504.04 471.72 490.76 461.45 490.76 461.45L487.52 421Z" fill="#505F98" fill-opacity="1.000000" fill-rule="nonzero"/>
	<path id="Path" d="M394.45 458.85C394.45 458.85 348.96 479.24 330.48 469.23C311.99 459.23 331.02 409 331.02 409L343.4 413.2C343.4 413.2 333.06 438.81 344.89 442.61C356.73 446.42 392.19 421.43 392.19 421.43L394.45 458.85Z" fill="#505F98" fill-opacity="1.000000" fill-rule="nonzero"/>
	<path id="Path" d="M480.09 545.97C478.78 546.82 477.72 547.96 477.01 549.29C476.58 550.42 476.42 551.62 476.56 552.81C476.48 555.7 477.79 558.47 480.14 560.36C481.78 561.25 483.63 561.76 485.53 561.85C486.69 562.04 487.88 562.04 489.05 561.85C490.23 561.64 491.22 560.88 491.68 559.84C491.83 559.18 491.9 558.5 491.87 557.83C492.02 554.51 494.53 551.79 496.6 549.07C497.1 548.55 497.42 547.9 497.52 547.2C497.51 546.43 497.22 545.69 496.7 545.09C495.3 543.19 491.83 539.71 489.05 540.01C486.26 540.32 482.25 544.32 480.09 545.97Z" fill="#F4AD7D" fill-opacity="1.000000" fill-rule="nonzero"/>
	<path id="Path" d="M351.21 401.43C351.8 400.61 352.21 399.67 352.4 398.69C352.55 397.68 352.01 396.68 351.06 396.21C349.54 395.64 347.74 397.13 346.25 396.5C345.74 396.23 345.32 395.84 345.02 395.37C343.25 392.94 342.24 390.09 342.09 387.14C342.18 385.57 342.03 383.99 341.65 382.46C341.21 380.88 339.63 379.84 337.92 380.01C336.51 380.33 335.72 381.68 334.84 382.77C333.96 383.86 332.21 385.15 331.06 386.51C329.11 389.3 328 392.55 327.83 395.89C327.22 400.07 326.82 404.86 329.9 407.87C332.27 410.19 339.5 412.92 342.82 411.69C346.49 410.31 349.37 404.44 351.21 401.43Z" fill="#F4AD7D" fill-opacity="1.000000" fill-rule="nonzero"/>
</svg>
