<svg width="1490.031982" height="1161.000000" viewBox="0 0 1490.03 1161" fill="none" xmlns="http://www.w3.org/2000/svg" xmlns:xlink="http://www.w3.org/1999/xlink">
	<desc>
			Created with Pixso.
	</desc>
	<defs/>
	<g opacity="0.500000" style="mix-blend-mode:normal">
		<path id="Path" d="M318.34 86.69C198.4 187.21 179.81 377.29 98.58 517.52C70.31 566.32 33.77 609.99 14.71 664.12C-29.06 788.02 31.18 928.57 111.8 1026.98C150.24 1073.93 195.14 1116.93 249.47 1136.72C291.25 1151.93 336.05 1152.56 380.03 1152.97L1150.5 1160.9C1236.52 1161.77 1332.1 1158.62 1393.95 1092.21C1436.57 1046.48 1453.89 979.69 1468.58 915.94C1486.64 837.61 1503 752.54 1474.91 677.94C1442.82 592.58 1361.67 544.21 1311.26 470.55C1229.44 351.22 1231.32 170.73 1127.14 75.46C1078.51 31 1014.33 13.56 951.79 4.84C833.89 -11.61 722.21 19.45 606.43 15.12C507.46 11.42 400.44 17.87 318.34 86.69Z" fill="#E7ECFF" fill-opacity="1.000000" fill-rule="nonzero"/>
	</g>
</svg>
