<svg width="36.000000" height="35.996460" viewBox="0 0 36 35.9965" fill="none" xmlns="http://www.w3.org/2000/svg" xmlns:xlink="http://www.w3.org/1999/xlink">
	<desc>
			Created with Pixso.
	</desc>
	<defs/>
	<path id="Shape" d="M34.9626 22.3835C35.1326 22.2056 35.3938 22.1487 35.6226 22.2396C35.8506 22.3308 36 22.5516 36 22.7971L36 35.3962C36 35.7274 35.7314 35.996 35.3999 35.996L23.4001 35.996C23.246 35.9962 23.0979 35.9369 22.9864 35.8309C22.8624 35.713 22.7999 35.5547 22.7999 35.3961C22.7999 35.2476 22.8546 35.0989 22.965 34.9828L26.571 31.1964L15.5767 31.1964C15.5316 31.5254 15.3951 31.8354 15.1831 32.0909L12.1122 35.7801L12.1119 35.7804C11.8998 36.035 11.5214 36.0696 11.2668 35.8575L8.50012 33.5541C8.35757 33.4356 8.284 33.2649 8.284 33.0928C8.284 32.9576 8.32947 32.8215 8.42267 32.7094L9.6828 31.1964L0.600128 31.1964C0.268616 31.1964 0 30.9278 0 30.5966L0 4.79846C0.00192261 3.1424 1.3439 1.80054 3.00009 1.79858L3.59995 1.79858C5.25613 1.80054 6.59811 3.1424 6.60004 4.79846L27.3697 4.79846L31.6357 0.192505C31.8606 -0.0507812 32.2402 -0.0653687 32.4833 0.159546L35.1233 2.60437C35.2513 2.7226 35.3162 2.88367 35.3162 3.04517C35.3162 3.19073 35.2635 3.33661 35.1571 3.4519L33.9343 4.77185L34.8143 5.59082L34.8148 5.59137C34.9427 5.70959 35.0075 5.87061 35.0075 6.0321C35.0075 6.1778 34.9548 6.32385 34.8481 6.43915L32.4031 9.07898L32.4001 9.07898L32.4001 25.0769L34.9626 22.3835ZM33.5597 6.05835L32.3998 7.31287L32.3998 6.43048L33.1197 5.65045L33.5597 6.05835ZM31.2 5.95148L31.2 5.96002L26.1257 11.4437L24.3635 9.81342L30.4763 3.20782L32.2385 4.83807L31.2071 5.95148L31.2 5.95148ZM24.9732 12.011L23.593 12.4136L23.8877 11.0061L24.9732 12.011ZM32.107 1.44653L33.8683 3.07593L33.0532 3.95837L31.2915 2.32727L32.107 1.44653ZM3.00049 2.99854L3.60034 2.99854C4.5946 2.99854 5.40045 3.80432 5.40045 4.79846L5.40045 27.6124C4.88409 27.2153 4.25156 26.9988 3.60034 26.9966L3.00049 26.9966C2.349 26.9988 1.71674 27.2153 1.20038 27.6124L1.20038 4.79846C1.20038 3.80432 2.00623 2.99854 3.00049 2.99854ZM3.00049 28.1966L3.60034 28.1966C4.5946 28.1966 5.40045 29.0027 5.40045 29.9966L1.20038 29.9966C1.20038 29.0027 2.00623 28.1966 3.00049 28.1966ZM14.2611 31.3235L13.8771 31.7844L12.0328 30.2491L12.4162 29.7877C12.6282 29.5331 13.0064 29.4985 13.261 29.7106L13.2616 29.7108L14.1836 30.4765C14.3264 30.5952 14.4002 30.7661 14.4002 30.9382C14.4002 31.0733 14.3547 31.2092 14.2616 31.3213L14.2611 31.3218L14.2611 31.3235ZM11.5741 34.5514L9.72949 33.0162L11.2651 31.1711L13.1094 32.7067L11.5741 34.5514ZM15.3247 29.9966C15.225 29.8304 15.099 29.6818 14.9515 29.5563L14.0294 28.789C13.2654 28.1529 12.1305 28.2565 11.4944 29.0205L10.6803 29.9966L6.60022 29.9966L6.60022 5.99841L26.2597 5.99841L23.0756 9.43909C23.03 9.49042 22.9937 9.54974 22.9688 9.61377C22.9616 9.63104 22.9561 9.64728 22.9501 9.66541C22.9443 9.68323 22.9352 9.70135 22.9308 9.72058L22.2145 13.1451C22.2059 13.1863 22.2018 13.2275 22.2018 13.268C22.2018 13.5462 22.3964 13.7958 22.6795 13.8547C22.7759 13.8748 22.8756 13.8709 22.9698 13.8434L26.33 12.8644C26.3457 12.8594 26.3589 12.8503 26.3737 12.8452C26.3888 12.8397 26.4044 12.832 26.4207 12.824C26.4879 12.7935 26.5489 12.7504 26.6006 12.6974L31.2003 7.72675L31.2003 26.3367L27.7143 29.9966L15.3247 29.9966ZM34.8 34.796L24.7997 34.796L34.8 24.2968L34.8 34.796Z" clip-rule="evenodd" fill="#000000" fill-opacity="1.000000" fill-rule="evenodd"/>
</svg>
