<svg width="540.000000" height="387.500000" viewBox="0 0 540 387.5" fill="none" xmlns="http://www.w3.org/2000/svg" xmlns:xlink="http://www.w3.org/1999/xlink">
	<desc>
			Created with Pixso.
	</desc>
	<defs/>
	<path id="Path" d="M540 232.72C540 300.37 499.7 324 450 324C400.29 324 360 300.37 360 232.72C360 165.06 450 79 450 79C450 79 540 165.06 540 232.72Z" fill="#F2F2F2" fill-opacity="1.000000" fill-rule="nonzero"/>
	<path id="Path" d="M446.95 313.87L447.87 257.2L486 187.08L448.01 248.31L448.42 222.82L474.7 172.09L448.53 216.08L448.53 216.08L449.27 170.25L477.41 129.86L449.39 163.04L449.85 79L446.94 190.25L447.18 185.66L418.57 141.64L446.72 194.47L444.06 245.66L443.98 244.3L411 197.98L443.88 249.1L443.54 255.5L443.48 255.6L443.51 256.13L436.75 386L445.78 386L446.87 318.92L479.67 267.92L446.95 313.87Z" fill="#3F3D56" fill-opacity="1.000000" fill-rule="nonzero"/>
	<path id="Path" d="M49 345.41C49 363.63 38.03 370 24.5 370C10.96 370 0 363.63 0 345.41C0 327.18 24.5 304 24.5 304C24.5 304 49 327.18 49 345.41Z" fill="#F2F2F2" fill-opacity="1.000000" fill-rule="nonzero"/>
	<path id="Path" d="M23.58 366.5L23.83 351.17L34 332.22L23.87 348.77L23.98 341.88L30.98 328.17L24 340.06L24.2 327.67L31.71 316.75L24.23 325.72L24.36 303L23.58 333.07L23.64 331.83L16.02 319.93L23.52 334.22L22.81 348.05L22.79 347.69L14 335.16L22.76 348.99L22.67 350.72L22.66 350.74L22.67 350.88L20.86 386L23.27 386L23.56 367.86L32.31 354.07L23.58 366.5Z" fill="#3F3D56" fill-opacity="1.000000" fill-rule="nonzero"/>
	<path id="Path" d="M3 386.5L492 386.5" stroke="#3F3D56" stroke-opacity="1.000000" stroke-width="2.000000"/>
	<path id="Path" d="M493 370.23C493 382.66 485.61 387 476.5 387C476.28 387 476.07 386.99 475.86 386.99C475.44 386.98 475.02 386.96 474.61 386.93C466.39 386.35 460 381.79 460 370.23C460 358.27 475.28 343.18 476.43 342.06L476.43 342.06C476.47 342.02 476.5 342 476.5 342C476.5 342 493 357.8 493 370.23Z" fill="#111B47" fill-opacity="1.000000" fill-rule="nonzero"/>
	<path id="Path" d="M475.71 385.1L481.81 376.67L475.69 386.03L475.68 387C475.25 386.99 474.83 386.97 474.41 386.94L475.07 374.5L475.06 374.41L475.07 374.39L475.13 373.21L469 363.83L475.15 372.33L475.17 372.58L475.66 363.19L470.41 353.49L475.73 361.54L476.25 342.06L476.25 342L476.25 342.06L476.16 357.42L481.39 351.33L476.14 358.74L476 367.15L480.89 359.08L475.98 368.39L475.9 373.07L483 361.83L475.88 374.7L475.71 385.1Z" fill="#3F3D56" fill-opacity="1.000000" fill-rule="nonzero"/>
	<rect id="Rectangle" x="313.000000" y="88.000000" rx="2.291660" width="6.000000" height="47.000000" fill="#3F3D56" fill-opacity="1.000000"/>
	<rect id="Rectangle" x="124.000000" y="51.000000" rx="1.500000" width="3.000000" height="15.000000" fill="#3F3D56" fill-opacity="1.000000"/>
	<rect id="Rectangle" x="124.000000" y="79.000000" rx="1.694600" width="4.000000" height="27.000000" fill="#3F3D56" fill-opacity="1.000000"/>
	<rect id="Rectangle" x="124.000000" y="116.000000" rx="1.500000" width="3.000000" height="27.000000" fill="#3F3D56" fill-opacity="1.000000"/>
	<rect id="Rectangle" x="126.000000" rx="35.693951" width="190.000000" height="386.000000" fill="#3F3D56" fill-opacity="1.000000"/>
	<rect id="Rectangle" x="202.000000" y="12.000000" rx="2.500000" width="27.000000" height="5.000000" fill="#E6E8EC" fill-opacity="1.000000"/>
	<path id="Oval" d="M236 17C237.65 17 239 15.65 239 14C239 12.34 237.65 11 236 11C234.34 11 233 12.34 233 14C233 15.65 234.34 17 236 17Z" fill="#E6E8EC" fill-opacity="1.000000" fill-rule="nonzero"/>
	<path id="Path" d="M305 25.08L305 360.91C304.99 369.24 298.22 376 289.86 376L153.13 376C144.77 376 138 369.24 138 360.91L138 25.08C138 21.08 139.59 17.24 142.43 14.41C145.27 11.58 149.11 9.99 153.13 10L173.59 10L173.59 12.62C173.59 19.48 179.17 25.04 186.05 25.04L255.59 25.04C262.47 25.04 268.05 19.48 268.05 12.62L268.05 10L289.86 10C293.88 9.99 297.73 11.58 300.56 14.41C303.4 17.24 305 21.08 305 25.08Z" fill="#FFFFFF" fill-opacity="1.000000" fill-rule="nonzero"/>
	<rect id="Rectangle" x="138.000000" y="88.000000" width="167.000000" height="192.000000" fill="#F2F2F2" fill-opacity="1.000000"/>
	<path id="Path" d="M150 306L149.13 305.22C146.03 302.4 144 300.57 144 298.29C143.98 297.42 144.32 296.57 144.94 295.95C145.57 295.33 146.41 294.99 147.3 295C148.34 295 149.33 295.46 150 296.25C150.67 295.46 151.65 295 152.7 295C153.58 294.99 154.42 295.33 155.05 295.95C155.67 296.57 156.01 297.42 156 298.29C156 300.57 153.96 302.4 150.87 305.22L150 306Z" fill="#FF6584" fill-opacity="1.000000" fill-rule="nonzero"/>
	<path id="Path" d="M181 303.53L182.73 304C183.36 302.29 184.85 300.99 186.7 300.51C188.56 300.03 190.56 300.44 192.03 301.6L189.38 304L196 304L196 298L193.33 300.38C191.4 298.79 188.74 298.22 186.25 298.86C183.77 299.49 181.8 301.25 181 303.53L181 303.53Z" fill="#F2F2F2" fill-opacity="1.000000" fill-rule="nonzero"/>
	<path id="Oval" d="M148.5 74C152.64 74 156 70.64 156 66.5C156 62.35 152.64 59 148.5 59C144.35 59 141 62.35 141 66.5C141 70.64 144.35 74 148.5 74Z" fill="#111B47" fill-opacity="1.000000" fill-rule="nonzero"/>
	<rect id="Rectangle" x="162.000000" y="62.000000" width="72.000000" height="9.000000" fill="#111B47" fill-opacity="1.000000"/>
	<rect id="Rectangle" x="143.000000" y="319.000000" width="72.000000" height="9.000000" fill="#F2F2F2" fill-opacity="1.000000"/>
	<rect id="Rectangle" x="144.000000" y="338.000000" width="151.000000" height="9.000000" fill="#F2F2F2" fill-opacity="1.000000"/>
	<path id="Path" d="M174 306L172.15 302.71C173.06 300.48 172.22 297.91 170.18 296.67C168.14 295.44 165.53 295.93 164.04 297.81C162.56 299.7 162.66 302.41 164.29 304.17C165.91 305.93 168.56 306.2 170.5 304.81L174 306Z" fill="#F2F2F2" fill-opacity="1.000000" fill-rule="nonzero"/>
	<path id="Path" d="M206.55 132.45L206.55 132.45C200.85 133.63 195.84 137.05 192.63 141.96C189.42 146.87 188.27 152.86 189.44 158.62L193.97 181L199.05 179.95L199.4 177.58L200.47 179.65L231.31 173.28L231.67 170.91L232.73 172.98L237 172.1L232.46 149.73C231.3 143.97 227.91 138.91 223.05 135.67C218.19 132.42 212.26 131.27 206.55 132.45Z" fill="#2F2E41" fill-opacity="1.000000" fill-rule="nonzero"/>
	<path id="Path" d="M245.64 201L272 217.18L268.7 225L244 213.27L245.64 201Z" fill="#9F616A" fill-opacity="1.000000" fill-rule="nonzero"/>
	<path id="Path" d="M211.9 219.63C211.9 219.63 158.39 219.63 149.56 233.39C140.73 247.16 147.91 266.42 175.49 270.82C203.07 275.23 286.93 277.43 293.55 260.92C300.17 244.4 295.21 235.05 295.21 235.05C295.21 235.05 266.52 215.23 211.9 219.63Z" fill="#111B47" fill-opacity="1.000000" fill-rule="nonzero"/>
	<path id="Path" d="M258.6 232.98L288 244C288 244 300.2 235.18 294.1 225.27C288 215.36 260.26 158.08 260.26 158.08C260.26 158.08 252.5 147.07 262.48 141.01C272.47 134.95 276.35 144.86 276.35 144.86C276.35 144.86 275.79 147.07 279.68 145.41C283.56 143.76 290.77 149.27 286.89 158.08C283 166.89 280.23 169.1 288.55 168.54C291.55 168.35 294.2 166.21 296.35 163.56C300.47 158.48 298.63 154.38 298.32 147.87C297.78 136.71 296.91 129.43 294.1 125.04C290.21 118.98 284.67 114.02 270.25 116.78C255.83 119.53 234.75 133.3 239.74 153.12C244.74 172.95 255.83 194.98 255.83 194.98C255.83 194.98 263.59 225.82 258.6 232.98Z" fill="#111B47" fill-opacity="1.000000" fill-rule="nonzero"/>
	<g opacity="0.100000" style="mix-blend-mode:normal">
		<path id="Path" d="M259 232.77C254.23 234.09 248.25 234.73 241.82 234.92C230.58 235.27 217.94 234.28 207.84 233.15C196.93 231.93 189 230.56 189 230.56C192.68 227.12 198.35 225.76 205.01 225.26C213.28 224.64 223.08 225.35 232.54 225.04C236.03 224.92 239.52 225.18 242.95 225.83C253.39 227.82 259 232.77 259 232.77Z" fill="#000000" fill-opacity="1.000000" fill-rule="nonzero"/>
	</g>
	<path id="Oval" d="M211.5 173C220.06 173 227 166.06 227 157.5C227 148.94 220.06 142 211.5 142C202.94 142 196 148.94 196 157.5C196 166.06 202.94 173 211.5 173Z" fill="#9F616A" fill-opacity="1.000000" fill-rule="nonzero"/>
	<path id="Path" d="M209.25 170.11C209.25 170.11 211.97 180.66 209.25 181.22C206.53 181.77 200 184.55 200 184.55L208.16 187.88L223.4 202.33L236.46 209L243 206.77L243 194.55L233.2 179C233.2 179 226.67 181.22 225.03 174C223.4 166.77 220.13 164 220.13 164L209.25 170.11Z" fill="#9F616A" fill-opacity="1.000000" fill-rule="nonzero"/>
	<path id="Path" d="M205.35 185L198.73 185C198.73 185 187.15 188.83 180.54 197.6C173.92 206.37 163.45 215.14 163.45 215.14C163.45 215.14 156.28 225.01 160.14 238.71C164 252.41 169.51 262.28 174.47 259.54C179.44 256.8 167.3 237.06 167.3 237.06L170.61 225.01C170.61 225.01 187.71 205.28 194.87 205.82C202.04 206.37 202.59 212.4 202.59 212.4L218.03 216.79L223 206.37L220.24 195.41L205.35 185Z" fill="#9F616A" fill-opacity="1.000000" fill-rule="nonzero"/>
	<path id="Path" d="M244.77 220.23C243.73 222.01 242.97 223.92 242.52 225.92C241.83 228.88 241.45 231.89 241.39 234.93C230.22 235.27 217.64 234.29 207.6 233.17C206.71 230.81 205.73 228.1 204.78 225.36C202.21 217.97 199.82 210.42 199.82 209.31C199.82 207.12 211.33 210.95 214.07 210.4C216.81 209.86 217.91 201.12 214.07 196.75C210.23 192.38 199 185 199 185L202.83 183.91C202.83 183.91 211.33 190.19 228.87 200.57C246.42 210.95 239.29 194.56 239.29 194.56L229.15 179L233.53 179C233.53 179 242.03 193.47 246.42 200.02C250.8 206.58 249.16 213.13 244.77 220.23Z" fill="#3F3D56" fill-opacity="1.000000" fill-rule="nonzero"/>
	<path id="Rectangle" d="M194.36 142.9L222.28 137.18L225.78 154.31L197.87 160.03L194.36 142.9Z" fill="#2F2E41" fill-opacity="1.000000" fill-rule="nonzero"/>
	<path id="Oval" d="M282.5 140C287.19 140 291 136.19 291 131.5C291 126.8 287.19 123 282.5 123C277.8 123 274 126.8 274 131.5C274 136.19 277.8 140 282.5 140Z" fill="#3F3D56" fill-opacity="1.000000" fill-rule="nonzero"/>
	<path id="Oval" d="M282.5 136C284.98 136 287 133.98 287 131.5C287 129.01 284.98 127 282.5 127C280.01 127 278 129.01 278 131.5C278 133.98 280.01 136 282.5 136Z" fill="#FFFFFF" fill-opacity="1.000000" fill-rule="nonzero"/>
	<path id="Path" d="M39.46 226L38.89 230.32C38.69 231.79 38.5 233.25 38.4 234.73C38.05 239.63 38.7 244.55 38.53 249.46C38.39 253.25 37.78 257.02 38.08 260.8C38.34 264.13 39.31 267.37 40.28 270.58L41.66 275.17C41.68 275.45 41.84 275.7 42.08 275.85C42.32 276 42.61 276.04 42.88 275.94L49 275.4C48.6 273.65 48.17 271.82 47.96 270.04C47.79 268.63 47.69 267.21 47.59 265.79C47.26 261.38 46.89 256.97 46.53 252.56L45.88 244.81C45.6 241.45 45.31 238.07 44.45 234.8C43.58 231.5 41.87 228.47 39.46 226Z" fill="#111B47" fill-opacity="1.000000" fill-rule="nonzero"/>
	<g opacity="0.100000" style="mix-blend-mode:normal">
		<path id="Path" d="M39.46 226L38.89 230.32C38.69 231.79 38.5 233.25 38.4 234.73C38.05 239.63 38.7 244.55 38.53 249.46C38.39 253.25 37.78 257.02 38.08 260.8C38.34 264.13 39.31 267.37 40.28 270.58L41.66 275.17C41.68 275.45 41.84 275.7 42.08 275.85C42.32 276 42.61 276.04 42.88 275.94L49 275.4C48.6 273.65 48.17 271.82 47.96 270.04C47.79 268.63 47.69 267.21 47.59 265.79C47.26 261.38 46.89 256.97 46.53 252.56L45.88 244.81C45.6 241.45 45.31 238.07 44.45 234.8C43.58 231.5 41.87 228.47 39.46 226Z" fill="#000000" fill-opacity="1.000000" fill-rule="nonzero"/>
	</g>
	<path id="Path" d="M50.84 375.44C50.49 376.13 50.18 376.85 49.91 377.59C49.22 379.63 49.11 381.82 49.01 383.97C48.97 384.39 49.01 384.81 49.13 385.21C49.42 385.99 50.28 386.38 51.08 386.59C54.43 387.49 57.97 386.65 61.42 386.34C64.82 386.03 68.27 386.25 71.6 385.5C72.09 385.41 72.56 385.25 73 385.01C73.85 384.47 74.48 383.64 74.78 382.69C74.89 382.44 74.95 382.19 74.99 381.92C75.1 380.79 74.11 379.81 73.03 379.43C71.96 379.06 70.79 379.12 69.66 379.01C64.87 378.52 61.01 374.87 60.24 370.12C60.2 369.87 54.64 370.02 54.06 370.34C53.37 370.72 52.96 371.65 52.57 372.29C51.95 373.31 51.37 374.36 50.84 375.44Z" fill="#3F3D56" fill-opacity="1.000000" fill-rule="nonzero"/>
	<g opacity="0.100000" style="mix-blend-mode:normal">
		<path id="Path" d="M50.84 375.44C50.49 376.13 50.18 376.85 49.91 377.59C49.22 379.63 49.11 381.82 49.01 383.97C48.97 384.39 49.01 384.81 49.13 385.21C49.42 385.99 50.28 386.38 51.08 386.59C54.43 387.49 57.97 386.65 61.42 386.34C64.82 386.03 68.27 386.25 71.6 385.5C72.09 385.41 72.56 385.25 73 385.01C73.85 384.47 74.48 383.64 74.78 382.69C74.89 382.44 74.95 382.19 74.99 381.92C75.1 380.79 74.11 379.81 73.03 379.43C71.96 379.06 70.79 379.12 69.66 379.01C64.87 378.52 61.01 374.87 60.24 370.12C60.2 369.87 54.64 370.02 54.06 370.34C53.37 370.72 52.96 371.65 52.57 372.29C51.95 373.31 51.37 374.36 50.84 375.44Z" fill="#000000" fill-opacity="1.000000" fill-rule="nonzero"/>
	</g>
	<path id="Path" d="M59.84 375.44C59.49 376.13 59.18 376.85 58.91 377.59C58.22 379.63 58.11 381.82 58.01 383.97C57.97 384.39 58.01 384.81 58.13 385.21C58.42 385.99 59.28 386.38 60.08 386.59C63.43 387.49 66.97 386.65 70.42 386.34C73.82 386.03 77.27 386.25 80.6 385.5C81.09 385.41 81.56 385.25 82 385.01C82.85 384.47 83.48 383.64 83.78 382.69C83.89 382.44 83.95 382.19 83.99 381.92C84.1 380.79 83.11 379.81 82.03 379.43C80.96 379.06 79.79 379.12 78.66 379.01C73.87 378.52 70.01 374.87 69.24 370.12C69.2 369.87 63.64 370.02 63.06 370.34C62.37 370.72 61.96 371.65 61.57 372.29C60.95 373.31 60.37 374.36 59.84 375.44Z" fill="#3F3D56" fill-opacity="1.000000" fill-rule="nonzero"/>
	<path id="Path" d="M82.99 320.95C83.06 332 79.88 342.79 76.15 353.18C74.67 357.29 73.11 361.36 71.45 365.4C70.47 367.8 69.36 370.45 70.41 372.81C67.39 371.65 64.29 370.96 61.09 371.5C62.31 369 62.19 366.08 62.25 363.3C62.35 359.51 62.76 355.74 63.45 352.02C64.52 346.36 66.36 340.88 68.91 335.72C69.43 334.64 69.78 333.48 69.97 332.29C70.3 329.64 70.15 326.95 69.52 324.36C68.35 318.61 66.14 313.13 62.99 308.2C62.98 308.31 62.97 308.43 62.96 308.54C62.77 310.18 62.49 311.81 62.14 313.42C61.42 316.85 60.59 320.27 60.71 323.71C60.85 327.36 60.63 331.01 60.05 334.61C59.86 336.03 59.5 337.41 58.96 338.74C58.61 339.53 58.16 340.27 57.88 341.09C57.61 342.04 57.47 343.02 57.46 344C57.05 352.32 57.45 362.96 59.14 371.12C56.3 370.99 53.48 371.64 50.98 373C48.94 367.2 47.64 358.96 46.67 352.85C45.58 345.64 45.8 338.28 47.33 331.15C47.81 328.77 47.99 326.34 47.86 323.91C47.65 319.08 46.47 314.36 45.3 309.67C44.71 307.29 44.11 304.91 43.52 302.53C42.68 299.14 41.83 295.75 40.98 292.35C40.42 290.1 39.85 287.79 40.03 285.47C40.15 284.2 40.42 282.95 40.82 281.73C42.08 277.61 43.97 273.7 46.42 270.16C56.17 270.71 66.05 269.79 75.79 269.03C76.26 268.94 76.75 269.02 77.17 269.27C77.5 269.61 77.69 270.06 77.72 270.54C78.94 277.51 80.16 284.49 81.38 291.47C81.97 294.39 82.32 297.35 82.42 300.32C82.44 303.28 81.96 306.24 82.07 309.2C82.22 313.19 82.97 316.96 82.99 320.95Z" fill="#2F2E41" fill-opacity="1.000000" fill-rule="nonzero"/>
	<g opacity="0.100000" style="mix-blend-mode:normal">
		<path id="Path" d="M63 309.18C62.8 310.79 62.52 312.4 62.16 314C60 310.34 57.67 306.78 55.68 303.04C55.16 302.07 54.67 301.1 54.18 300.12C53.69 299.15 53.21 298.17 52.72 297.2C52.44 296.65 52.17 296.1 51.92 295.54C51.52 294.73 51.21 293.88 51 293C51.72 292.87 53.5 294.78 54.04 295.28C55.14 296.33 56.18 297.45 57.15 298.62C58.32 299.92 59.4 301.3 60.38 302.75C61.62 304.73 62.51 306.9 63 309.18Z" fill="#000000" fill-opacity="1.000000" fill-rule="nonzero"/>
	</g>
	<path id="Path" d="M72 207.61C72 207.61 66.44 216.57 67.47 218.45C68.5 220.32 50 216.78 50 216.78C50 216.78 60.07 207.82 59.04 204.07C58.01 200.32 72 207.61 72 207.61Z" fill="#EFB7B9" fill-opacity="1.000000" fill-rule="nonzero"/>
	<path id="Oval" d="M66.5 210C73.4 210 79 204.4 79 197.5C79 190.59 73.4 185 66.5 185C59.59 185 54 190.59 54 197.5C54 204.4 59.59 210 66.5 210Z" fill="#EFB7B9" fill-opacity="1.000000" fill-rule="nonzero"/>
	<path id="Path" d="M71.86 216.21C70.52 214.36 68.71 212.91 66.61 212.01C65.41 211.58 64.16 211.27 62.89 211.09L57.91 210.22C56.7 210.01 55.39 209.81 54.26 210.31C53.68 210.6 53.15 210.98 52.7 211.44C50.97 213.03 49.3 214.78 47.13 215.7C46.53 215.95 45.91 216.13 45.32 216.39C42.9 217.42 41.08 219.59 40.05 222.01C38.97 224.54 38.94 227.29 39.02 230.04C39.02 230.99 39.12 231.94 39.31 232.87C39.56 233.75 39.87 234.62 40.25 235.46C40.94 237.25 41.51 239.09 41.97 240.95C43.26 245.86 44.33 250.81 45.19 255.81C45.26 256.53 45.47 257.23 45.81 257.86C46.29 258.5 46.87 259.06 47.53 259.51C48.05 259.94 48.54 260.41 48.97 260.92C49.19 261.14 49.34 261.41 49.43 261.71C49.59 262.44 48.93 263.08 48.4 263.62C47.29 264.74 46.49 266.13 46.07 267.65C45.81 267.96 45.68 268.35 45.7 268.76C45.81 269.04 45.85 269.34 45.82 269.64C45.71 269.91 45.55 270.16 45.35 270.36C44.87 270.99 44.68 271.78 44.83 272.55C48.7 274.22 52.83 275.18 57.04 275.39C58.07 275.44 59.11 275.44 60.13 275.57C60.86 275.66 61.58 275.81 62.31 275.89C63.38 275.99 64.45 276.02 65.51 275.97C71.06 275.87 76.78 275.72 81.87 273.54C82.35 270.94 81.32 268.29 80.67 265.73C79.64 261.66 79.38 257.44 78.61 253.31C78.08 250.48 77.32 247.7 76.88 244.86C76.45 242.02 76.34 239.07 77.13 236.31C77.83 233.85 78.04 231.36 78.76 228.91C79.48 226.47 79.99 223.82 79.17 221.41C78.16 218.41 75.03 216.04 71.86 216.21Z" fill="#111B47" fill-opacity="1.000000" fill-rule="nonzero"/>
	<path id="Path" d="M77.83 191.49C78.44 189.31 77.24 187.03 75.81 185.26C74.27 183.35 72.28 181.63 69.85 181.15C67.88 180.77 65.83 181.24 63.82 181.08C62.04 180.94 60.34 180.31 58.57 180.09C56.97 179.92 55.35 179.98 53.77 180.27C52.26 180.48 50.79 180.89 49.39 181.47C44.06 183.79 40.93 189.52 40.21 195.2C39.48 200.88 40.75 206.61 42.02 212.2L43.16 217.25C44.35 222.51 45.54 227.8 45.86 233.18C46.18 238.56 45.58 244.08 43.33 249C50.62 245.15 56.26 238.88 59.24 231.3C60.06 229.22 60.66 227.06 61.55 225.02C62.32 223.26 63.31 221.59 64 219.8C64.77 217.77 65.14 215.62 65.09 213.45C65.05 211.83 64.77 210.21 64.82 208.58C64.87 206.96 65.29 205.26 66.44 204.08C67.45 203.04 68.9 202.54 70.21 201.88C72.27 200.84 74.07 199.36 75.48 197.56C76.31 196.5 76.35 196.05 76.56 194.83C76.77 193.65 77.51 192.64 77.83 191.49Z" fill="#2F2E41" fill-opacity="1.000000" fill-rule="nonzero"/>
	<path id="Path" d="M77.89 283.91C78.02 285.2 77.78 286.53 78.06 287.79C78.28 288.75 78.77 289.61 79.06 290.54C79.35 291.62 79.49 292.73 79.5 293.85C79.54 294.79 79.47 295.92 78.64 296.36C78.28 296.56 77.84 296.56 77.46 296.72C77.08 296.88 76.76 297.34 76.98 297.69C77.16 297.99 77.57 297.99 77.91 298.06C78.25 298.13 78.62 298.48 78.43 298.77C78.35 298.86 78.24 298.93 78.12 298.96C77.78 299.06 77.45 299.22 77.15 299.43C76.85 299.64 76.7 300.01 76.75 300.37C76.79 300.55 76.91 300.69 77.08 300.77C77.24 300.84 77.43 300.84 77.59 300.76C77.43 301.08 77.35 301.44 77.34 301.79C78.67 302.36 80.16 301.62 81.41 300.89C81.95 300.59 82.47 300.26 82.97 299.9C85.01 298.32 86.13 295.84 85.98 293.27C85.92 292.63 85.83 292 85.69 291.37C85.5 290.28 85.24 289.21 84.92 288.15C84.57 287.03 84.08 285.97 83.66 284.87C82.76 282.54 82.19 280.1 81.38 277.74C81.36 277.51 81.24 277.3 81.06 277.16C80.87 277.02 80.64 276.97 80.42 277.01C79.51 276.96 78.6 277.04 77.71 277.26C77.18 277.41 76.3 277.76 76.06 278.32C75.85 278.82 76.21 279.27 76.44 279.71C77.19 281 77.68 282.43 77.89 283.91Z" fill="#EFB7B9" fill-opacity="1.000000" fill-rule="nonzero"/>
	<g opacity="0.100000" style="mix-blend-mode:normal">
		<path id="Path" d="M77.31 222C77.57 222.26 77.78 222.57 77.95 222.91C79.67 226.11 79.69 229.94 79.77 233.6C79.86 237.71 80.08 241.82 80.3 245.92L80.96 258.21C81.02 259.38 81.08 260.55 81.25 261.72C82.02 261.92 82.05 262.94 81.96 263.75C81.41 268.76 80.03 273.92 81.47 278.75C81.53 279 81.64 279.23 81.81 279.42C81.08 279.18 80.3 279.17 79.57 279.39C78.85 279.54 78.16 279.81 77.45 279.98C76.54 280.19 75.5 280.28 74.88 281C74.18 278.83 73.62 276.61 73.21 274.37C72.87 272.33 72.78 270.21 71.96 268.31C71.64 267.55 71.2 266.84 70.8 266.11C68.7 262.28 67.67 257.94 66.67 253.67C66.21 251.64 66.11 249.55 66.35 247.49C66.49 246.54 66.57 245.59 66.6 244.64C66.53 243.64 66.4 242.64 66.21 241.65C65.79 238.75 65.99 235.79 66.79 232.98C67.55 230.37 68.21 227.63 69.78 225.43C71.36 223.24 74.65 222.03 77.31 222Z" fill="#000000" fill-opacity="1.000000" fill-rule="nonzero"/>
	</g>
	<path id="Path" d="M77.31 221C77.57 221.26 77.78 221.57 77.95 221.91C79.67 225.11 79.69 228.94 79.77 232.6C79.86 236.71 80.08 240.82 80.3 244.92L80.96 257.21C81.02 258.38 81.08 259.55 81.25 260.72C82.02 260.92 82.05 261.94 81.96 262.75C81.41 267.76 80.03 272.92 81.47 277.75C81.53 278 81.64 278.23 81.81 278.42C81.08 278.18 80.3 278.17 79.57 278.39C78.85 278.54 78.16 278.81 77.45 278.98C76.54 279.19 75.5 279.28 74.88 280C74.18 277.83 73.62 275.61 73.21 273.37C72.87 271.33 72.78 269.21 71.96 267.31C71.64 266.55 71.2 265.84 70.8 265.11C68.7 261.28 67.67 256.94 66.67 252.67C66.21 250.64 66.11 248.55 66.35 246.49C66.49 245.54 66.57 244.59 66.6 243.64C66.53 242.64 66.4 241.64 66.21 240.65C65.79 237.75 65.99 234.79 66.79 231.98C67.55 229.37 68.21 226.63 69.78 224.43C71.36 222.24 74.65 221.03 77.31 221Z" fill="#111B47" fill-opacity="1.000000" fill-rule="nonzero"/>
	<g opacity="0.100000" style="mix-blend-mode:normal">
		<path id="Path" d="M75.69 184.58C74.16 182.66 72.17 180.92 69.75 180.44C67.78 180.05 65.74 180.52 63.74 180.36C61.97 180.22 60.27 179.59 58.5 179.37C56.91 179.2 55.3 179.26 53.72 179.55C52.22 179.76 50.75 180.17 49.35 180.76C48.6 181.09 47.88 181.5 47.2 181.97C48.45 181.5 49.74 181.17 51.06 180.97C52.63 180.68 54.25 180.62 55.84 180.79C57.61 181.02 59.31 181.65 61.08 181.79C63.08 181.94 65.12 181.47 67.09 181.86C69.51 182.34 71.5 184.08 73.03 186C74.46 187.78 75.65 190.07 75.05 192.27C74.73 193.43 73.99 194.44 73.78 195.64C73.57 196.86 73.53 197.32 72.71 198.38C71.65 199.75 70.37 200.93 68.91 201.89C69.31 201.7 69.72 201.51 70.11 201.31C72.17 200.27 73.96 198.78 75.37 196.96C76.19 195.9 76.23 195.44 76.44 194.22C76.65 193.02 77.39 192.01 77.71 190.85C78.31 188.65 77.12 186.36 75.69 184.58Z" fill="#000000" fill-opacity="1.000000" fill-rule="nonzero"/>
		<path id="Path" d="M66.35 203.53C66.56 203.31 66.8 203.11 67.05 202.93C65.85 203.51 64.6 204.01 63.69 204.96C62.54 206.14 62.13 207.85 62.08 209.49C62.03 211.12 62.31 212.76 62.34 214.39C62.39 216.57 62.02 218.74 61.26 220.78C60.57 222.59 59.59 224.27 58.82 226.04C57.92 228.1 57.32 230.28 56.52 232.37C53.94 238.98 49.36 244.64 43.4 248.56C43.37 248.63 43.34 248.7 43.31 248.77C50.58 244.9 56.2 238.58 59.18 230.95C59.99 228.85 60.58 226.68 61.48 224.62C62.25 222.85 63.23 221.17 63.92 219.36C64.69 217.32 65.06 215.15 65.01 212.97C64.97 211.33 64.69 209.7 64.74 208.07C64.79 206.43 65.21 204.72 66.35 203.53Z" fill="#000000" fill-opacity="1.000000" fill-rule="nonzero"/>
	</g>
	<path id="Path" d="M338.52 384.82C337.92 385.5 336.89 385.64 335.96 385.73C334.76 385.89 333.54 385.91 332.33 385.79C330.9 385.59 330.04 386.36 328.73 385.77C327.94 385.41 326.72 386.12 325.92 385.77C324.84 385.28 321.09 385.18 320.42 384.22C319.76 383.27 319.83 381.76 320.88 381.19C321.17 381.06 321.48 380.95 321.79 380.86C323.54 380.2 327.09 375.25 328.95 375C329.88 374.96 330.8 375.16 331.6 375.59C333.44 376.36 336.68 376.96 337.49 378.91C338.11 380.43 339.82 383.33 338.52 384.82Z" fill="#2F2E41" fill-opacity="1.000000" fill-rule="nonzero"/>
	<path id="Path" d="M351.47 385.4C352.06 386.12 353.07 386.26 353.99 386.36C355.18 386.53 356.39 386.55 357.58 386.43C359 386.21 360.73 387.44 362.02 386.82C362.8 386.44 364.01 386.64 364.79 386.26C365.87 385.74 370.92 386.89 371.57 385.88C372.22 384.87 372.16 383.27 371.12 382.68C370.83 382.54 370.53 382.42 370.22 382.32C368.49 381.63 362.76 375.27 360.92 375C360.01 374.96 359.1 375.17 358.3 375.62C356.49 376.44 353.28 377.08 352.49 379.14C351.87 380.75 350.18 383.82 351.47 385.4Z" fill="#2F2E41" fill-opacity="1.000000" fill-rule="nonzero"/>
	<path id="Path" d="M357.08 272.84C357.65 273.92 358.14 275.03 358.56 276.17C363.58 289.33 364 303.71 364.2 317.78C364.19 320.07 364.32 322.35 364.6 324.63C364.81 326.07 365.14 327.52 364.93 328.96C364.74 330.2 364.15 331.43 364.39 332.67C364.49 333.22 364.76 333.74 364.87 334.29C364.95 334.9 364.93 335.52 364.82 336.12L364.14 341.08C363.76 343.91 362.88 346.63 362.92 349.48C362.96 351.43 362.99 353.38 363.21 355.31C363.43 357.27 363.84 359.22 363.86 361.2C363.88 362.68 363.68 364.15 363.54 365.62C363.36 367.7 363.32 369.8 363.42 371.88C363.5 373.49 363.68 375.16 364.54 376.53C363.58 377.9 362.62 379.12 361.08 379.79C357.95 381.16 354.35 380.69 350.97 380.21C351.15 379.59 351.45 378.88 351.17 378.3C351.02 378.01 350.82 377.75 350.59 377.51C349.85 376.47 349.34 375.28 349.09 374.04C348.68 372.55 348.27 370.96 349.11 369.54C349.4 369.03 349.53 368.45 349.47 367.87C348.77 358.54 346.68 348.89 348.61 339.73C348.81 338.75 349.06 337.78 349.17 336.79C349.28 335.36 349.29 333.93 349.23 332.5L349.19 330.51C349.08 328.39 349.17 326.21 348.74 324.12C348.44 322.61 347.86 321.1 348.57 319.57C348.88 318.86 348.84 318.04 348.46 317.36C346.98 314.78 345.78 312.04 344.9 309.19C344.71 308.4 344.46 307.62 344.15 306.87C343.71 306.07 343.22 305.32 342.66 304.6C340.98 302.19 339.98 299.39 339 296.63C339.1 296.37 339.02 296.02 338.75 296.06C338.48 296.12 338.24 296.3 338.1 296.53C336.75 298.33 336.64 300.73 336.58 302.98C336.47 305.06 336.51 307.15 336.68 309.22C336.8 310.31 336.99 311.39 337.09 312.48C337.22 314.52 337.19 316.56 336.99 318.59L336.3 328.58C336.21 329.4 336.26 330.24 336.45 331.05C336.89 332.45 337.11 333.91 337.09 335.37C336.91 341.41 337.43 347.44 338.66 353.35C338.99 354.99 339.38 356.61 339.67 358.25C340.34 362.12 340.43 366.06 340.52 369.99C340.58 372.4 340.62 374.9 339.66 377.12C339.29 377.81 339.01 378.54 338.84 379.3C338.84 379.69 338.79 380.08 338.69 380.46C338.41 381.18 337.56 381.49 336.8 381.65C335.38 381.96 333.91 382.06 332.46 381.96C332.11 381.95 331.78 381.88 331.47 381.74C330.92 381.46 330.63 380.87 330.22 380.42C329.33 379.45 327.85 379.16 327.04 378.13C326.02 376.84 326.45 374.97 327.05 373.45C327.66 371.92 328.41 370.27 327.89 368.72C327.27 366.89 325.1 365.9 324.52 364.06C326.18 356.64 322.09 348.97 322.44 341.38C322.53 339.61 322.84 337.85 322.84 336.08C322.86 331.52 320.87 327.09 321.19 322.54C322.03 310.98 318.06 299.44 316.38 287.97C316.06 286.26 315.94 284.52 316.02 282.78C316.27 279.91 317.61 277.24 319.23 274.84C320.39 273.13 321.78 271.45 323.7 270.64C325.28 269.98 327.04 269.99 328.76 270C333.04 270.03 337.31 270.06 341.59 270.14C344.5 270.1 347.4 270.36 350.26 270.91C352.57 271.44 354.73 272.5 357.08 272.84Z" fill="#2F2E41" fill-opacity="1.000000" fill-rule="nonzero"/>
	<path id="Path" d="M288.64 220.12C288.21 218.05 289.02 215.83 288.38 213.82C288.16 213.09 287.59 212.33 286.82 212.35C286.07 212.37 285.56 213.1 284.9 213.44C283.82 213.99 282.52 213.49 281.45 212.94C280.38 212.38 279.18 211.76 278.02 212.09C277.88 212.81 278.37 213.49 278.91 214C279.5 214.44 279.99 215 280.35 215.64C280.52 216.34 280.59 217.05 280.54 217.77C280.67 219.41 281.72 220.82 282.77 222.1C284.47 224.15 286.27 226.12 288.17 228C288.17 227.99 291.05 224.47 290.99 223.86C290.94 223.28 289.97 222.74 289.62 222.27C289.14 221.63 288.8 220.9 288.64 220.12Z" fill="#A1616A" fill-opacity="1.000000" fill-rule="nonzero"/>
	<path id="Path" d="M370.59 262.37C370.83 263.02 371.01 263.69 371.13 264.38C371.83 267.88 372.27 271.44 372.71 274.99C372.82 275.94 372.94 276.89 372.98 277.84C373.1 280.11 372.65 282.37 371.66 284.41C370.66 286.44 368.97 288.02 366.9 288.84C366.26 289.07 365.37 289.11 365.09 288.48C365 288.18 365 287.86 365.1 287.57C365.35 286.63 365.86 285.78 366.2 284.86C366.69 283.48 366.77 281.99 366.43 280.57C366.3 280.02 366.02 279.42 365.49 279.31C365.76 280.56 365.53 281.87 364.87 282.96C364.72 283.26 364.46 283.49 364.14 283.59C363.69 283.64 363.26 283.36 363.12 282.91C362.99 282.48 362.96 282.01 363.04 281.56C363.21 279.28 363.54 277.02 364.04 274.79C364.64 272.35 365.58 269.94 365.52 267.42C365.46 265.13 364.58 262.89 364.83 260.62C364.83 260.48 364.87 260.35 364.95 260.23C365.03 260.15 365.13 260.09 365.23 260.06C365.85 259.79 366.48 259.58 367.13 259.41C367.51 259.31 368.82 258.84 369.19 259.05C369.48 259.22 369.58 260.24 369.72 260.58C369.99 261.19 370.34 261.75 370.59 262.37Z" fill="#A1616A" fill-opacity="1.000000" fill-rule="nonzero"/>
	<path id="Oval" d="M326 195C330.97 195 335 190.97 335 186C335 181.03 330.97 177 326 177C321.02 177 317 181.03 317 186C317 190.97 321.02 195 326 195Z" fill="#A1616A" fill-opacity="1.000000" fill-rule="nonzero"/>
	<path id="Path" d="M334.68 192.61C334.68 193.2 334.73 193.79 334.82 194.37C334.95 194.96 335.13 195.54 335.36 196.1C335.67 197.01 336.1 197.87 336.65 198.66C337.21 199.45 338.05 199.99 339 200.19C332.67 203.17 325.92 205.13 319 206C320.09 205.27 321 204.29 321.65 203.15C322 202.42 322.23 201.64 322.35 200.83C322.94 197.47 322.64 194.02 321.48 190.81C321.37 190.49 321.25 190.11 321.47 189.85C321.57 189.76 321.68 189.68 321.8 189.64C324.55 188.47 327.51 187.91 330.5 188.01C331.26 188.01 332.02 188.05 332.78 188.1C333.19 188.13 334.09 188.04 334.42 188.34C334.8 188.7 334.61 189.82 334.62 190.3L334.68 192.61Z" fill="#A1616A" fill-opacity="1.000000" fill-rule="nonzero"/>
	<path id="Path" d="M338.95 199.78C336.14 196.22 331.25 195.01 327.1 196.85C322.69 198.94 320.52 203.94 316.64 206.89C315.76 207.54 314.82 208.12 313.84 208.61C313.26 208.92 312.64 209.17 311.99 209.33C311.27 209.49 310.51 209.47 309.79 209.64C308.42 210.04 307.25 210.94 306.51 212.16C306.15 212.8 305.75 213.41 305.31 214C304.9 214.48 304.4 214.87 303.97 215.32C302.43 216.96 302.01 219.32 301.66 221.54C300.46 222.8 299.14 223.95 297.73 224.98C297.29 225.32 296.79 225.59 296.27 225.78C294.92 226.21 293.42 225.66 292.26 224.83C291.11 224 290.17 222.91 289.03 222.06C287.98 223.55 286.89 225.04 285.77 226.47C285.6 226.74 285.35 226.95 285.04 227.06C284.84 227.76 285.34 228.49 285.71 229.11L287.73 232.48C288.4 233.7 289.22 234.84 290.17 235.86C291.13 236.89 292.45 237.53 293.86 237.64C294.75 237.64 295.64 237.47 296.47 237.15C300.31 235.87 303.85 233.82 307.5 232.08C308.17 231.7 308.91 231.49 309.67 231.45C310.46 231.43 311.16 231.93 311.39 232.67C311.8 234.77 312.22 236.87 312.8 238.93C313.34 240.88 313.85 242.83 314.32 244.8C314.63 246.01 314.85 247.23 314.98 248.47C315.04 249.17 315.05 249.87 315.05 250.58L315.13 259.09C315.14 260 314.61 260.58 314.21 261.4C313.59 262.68 313.49 264.15 313.95 265.49C314.18 266.15 314.53 266.77 314.78 267.42C315.39 269.01 315.37 270.75 315.34 272.45L315.26 276.33C315.25 276.49 315.28 276.65 315.35 276.8C315.59 277.17 316.17 276.95 316.53 276.7L318.36 275.44C320.81 275.78 323.29 275.9 325.76 275.8C332.78 275.7 339.81 275.97 346.82 276.46C349.16 276.62 351.58 276.8 353.79 276.02C354.92 275.63 355.95 275 357.1 274.69C357.57 274.62 358.02 274.43 358.41 274.15C359.05 273.56 358.88 272.53 358.62 271.7C358.39 270.98 358.13 270.27 357.84 269.56C357.54 268.92 357.29 268.25 357.11 267.56C356.76 266.01 357.1 264.22 356.12 262.96C353.95 260.14 355.49 255.79 354.57 252.36C354.28 251.24 353.84 250.17 353.57 249.05C353.39 248.35 353.28 247.64 353.17 246.92C352.89 245.38 352.74 243.81 352.75 242.24C352.77 241.46 352.87 240.68 352.97 239.9L353.66 234.48C354.53 236.09 355.13 237.81 355.44 239.6C356.07 242.27 356.85 244.91 357.77 247.5C358.29 249.06 358.81 250.62 359.37 252.17C359.73 253.05 360 253.96 360.19 254.89C360.32 255.64 360.32 256.41 360.41 257.16C360.6 258.78 361.17 260.34 362.08 261.7C362.24 262.01 362.52 262.26 362.86 262.38C363.08 262.43 363.32 262.42 363.54 262.36C365.98 261.88 368.35 261.07 370.57 259.94C371.04 259.75 371.45 259.43 371.75 259.03C372.35 258.06 371.68 256.86 371.39 255.77C371.08 254.59 371.16 253.18 370.22 252.4C366.98 249.66 368.59 244.11 366.97 240.2C366.68 239.52 366.35 238.85 366.11 238.15C365.92 237.62 365.78 237.07 365.65 236.52C364.51 231.97 363.3 227.44 362.01 222.94C360.67 218.27 360.81 213.4 359.13 208.84C358.81 207.89 358.4 206.97 357.89 206.09C357.32 205.18 356.56 204.4 355.66 203.81C353.21 202.21 350.74 200.84 347.87 200.26C344.99 199.67 341.88 199.77 338.95 199.78Z" fill="#D0CDE1" fill-opacity="1.000000" fill-rule="nonzero"/>
	<path id="Path" d="M317.59 188.12C316.34 187.45 316.67 185.64 316.46 184.24C316.02 181.37 312.76 179.67 312 176.87C312.88 176.98 313.77 176.85 314.58 176.5C314.74 175.57 314.56 174.62 314.06 173.81C316.75 172.73 318.92 170.6 321.64 169.63C325.07 168.4 328.89 169.15 332.34 170.29C334.07 170.86 335.86 171.6 336.91 173.08C338.05 174.71 338.03 176.85 337.97 178.83C337.88 181.94 337.75 185.16 336.36 187.95C334.59 191.5 329.56 194.79 325.41 193.83C323.69 193.43 323.18 192.35 322.45 190.86C322 189.93 321.83 188.85 320.81 188.37C319.81 187.9 318.6 188.67 317.59 188.12Z" fill="#2F2E41" fill-opacity="1.000000" fill-rule="nonzero"/>
	<g opacity="0.100000" style="mix-blend-mode:normal">
		<path id="Path" d="M355.61 254.28C355.62 254.53 355.63 254.78 355.63 255.02C355.62 254.78 355.61 254.53 355.61 254.28Z" fill="#000000" fill-opacity="1.000000" fill-rule="nonzero"/>
		<path id="Path" d="M315.52 263.57C316.13 265.16 316.11 266.91 316.08 268.62C316.07 269.07 316.06 269.51 316.05 269.96C316.01 269.04 315.83 268.13 315.52 267.26C315.27 266.6 314.91 265.98 314.69 265.32C314.29 264.15 314.31 262.88 314.73 261.73C314.95 262.35 315.28 262.94 315.52 263.57Z" fill="#000000" fill-opacity="1.000000" fill-rule="nonzero"/>
	</g>
	<g opacity="0.100000" style="mix-blend-mode:normal">
		<path id="Path" d="M314.48 174.96L314.47 174.97C314.39 174.39 314.24 173.84 314.01 173.34C314.15 173.26 314.29 173.18 314.43 173.09C314.54 173.71 314.56 174.34 314.48 174.96Z" fill="#000000" fill-opacity="1.000000" fill-rule="nonzero"/>
	</g>
	<path id="Path" d="M24 157L21.82 155.01C14.1 147.84 9 143.19 9 137.39C8.96 135.16 9.81 133.01 11.37 131.43C12.92 129.85 15.04 128.97 17.25 129C19.85 129.01 22.32 130.18 24 132.2C25.67 130.18 28.14 129.01 30.74 129C32.95 128.97 35.07 129.85 36.62 131.43C38.18 133.01 39.03 135.16 38.99 137.39C38.99 143.19 33.89 147.84 26.17 155.01L24 157Z" fill="#FF6584" fill-opacity="1.000000" fill-rule="nonzero"/>
	<path id="Path" d="M25.82 150.01C18.1 142.84 13 138.19 13 132.39C12.96 130.16 13.81 128.01 15.37 126.43C16.92 124.85 19.04 123.97 21.25 124C23.85 124.01 26.32 125.18 28 127.2C29.67 125.18 32.14 124.01 34.74 124C36.95 123.97 39.07 124.85 40.62 126.43C42.18 128.01 43.03 130.16 42.99 132.39C42.99 138.19 37.89 142.84 30.17 150.01L28 152L25.82 150.01Z" stroke="#3F3D56" stroke-opacity="1.000000" stroke-width="2.000000"/>
</svg>
