<svg width="445.000000" height="312.000000" viewBox="0 0 445 312" fill="none" xmlns="http://www.w3.org/2000/svg" xmlns:xlink="http://www.w3.org/1999/xlink">
	<desc>
			Created with Pixso.
	</desc>
	<defs/>
	<path id="Oval" d="M167 304C246.52 304 311 239.52 311 160C311 80.47 246.52 16 167 16C87.47 16 23 80.47 23 160C23 239.52 87.47 304 167 304Z" fill="#F2F2F2" fill-opacity="1.000000" fill-rule="nonzero"/>
	<path id="Path" d="M190.1 181.95C158.4 230.83 167.08 293 167.08 293C167.08 293 227.18 275.92 258.89 227.04C290.59 178.16 281.91 116 281.91 116C281.91 116 221.81 133.08 190.1 181.95Z" fill="#3F3D56" fill-opacity="1.000000" fill-rule="nonzero"/>
	<path id="Path" d="M166.99 292C166.99 292 166.21 291.87 164.78 291.58C163.64 291.35 162.07 291.03 160.16 290.57C143.02 286.55 97.48 272.96 67.7 237.24C30.44 192.5 32 130 32 130C32 130 88.99 139.21 126.54 179.39C128.17 181.11 129.75 182.9 131.29 184.75C163.72 223.68 166.74 276.06 166.98 289C167.01 290.94 166.99 292 166.99 292Z" fill="#222F65" fill-opacity="1.000000" fill-rule="nonzero"/>
	<path id="Path" d="M166.91 293C166.91 293 106.81 275.92 75.1 227.04C43.4 178.16 52.08 116 52.08 116C52.08 116 112.18 133.08 143.89 181.95C175.59 230.83 166.91 293 166.91 293Z" stroke="#3F3D56" stroke-opacity="1.000000" stroke-width="2.000000"/>
	<g opacity="0.100000" style="mix-blend-mode:normal">
		<path id="Path" d="M167 290.05C166.16 291.07 165.41 291.93 164.81 292.64C163.45 294.19 162.69 295 162.69 295C162.69 295 161.76 293.82 160.19 291.63C151.61 279.63 123.98 236.95 126.11 187.66C126.23 185.08 126.42 182.52 126.68 180C128.3 181.73 129.88 183.53 131.42 185.39C163.74 224.47 166.76 277.05 167 290.05Z" fill="#000000" fill-opacity="1.000000" fill-rule="nonzero"/>
	</g>
	<path id="Path" d="M214.88 191.28C212.35 249.54 168.92 295 168.92 295C168.92 295 129.58 245.98 132.11 187.71C134.64 129.45 178.07 84 178.07 84C178.07 84 217.41 133.01 214.88 191.28Z" fill="#222F65" fill-opacity="1.000000" fill-rule="nonzero"/>
	<path id="Path" d="M169 293L178 86" stroke="#3F3D56" stroke-opacity="1.000000" stroke-width="2.000000"/>
	<path id="Oval" d="M222.5 312C345.38 312 445 305.73 445 298C445 290.26 345.38 284 222.5 284C99.61 284 0 290.26 0 298C0 305.73 99.61 312 222.5 312Z" fill="#3F3D56" fill-opacity="1.000000" fill-rule="nonzero"/>
	<path id="Path" d="M37 293L37 237" fill="#3F3D56" fill-opacity="1.000000" fill-rule="nonzero"/>
	<path id="Path" d="M37 293L37 237" stroke="#3F3D56" stroke-opacity="1.000000" stroke-width="2.000000"/>
	<path id="Oval" d="M37 245C41.41 245 45 241.41 45 237C45 232.58 41.41 229 37 229C32.58 229 29 232.58 29 237C29 241.41 32.58 245 37 245Z" fill="#3F3D56" fill-opacity="1.000000" fill-rule="nonzero"/>
	<path id="Path" d="M37 272C37 272 35.88 247.36 13 250.23L37 272Z" fill="#3F3D56" fill-opacity="1.000000" fill-rule="nonzero"/>
	<path id="Path" d="M228 202L228 46" fill="#3F3D56" fill-opacity="1.000000" fill-rule="nonzero"/>
	<path id="Path" d="M228 202L228 46" stroke="#3F3D56" stroke-opacity="1.000000" stroke-width="2.000000"/>
	<path id="Oval" d="M228 58C234.07 58 239 53.07 239 47C239 40.92 234.07 36 228 36C221.92 36 217 40.92 217 47C217 53.07 221.92 58 228 58Z" fill="#3F3D56" fill-opacity="1.000000" fill-rule="nonzero"/>
	<path id="Path" d="M228 91C228 91 226.46 57.41 195 61.31L228 91Z" fill="#3F3D56" fill-opacity="1.000000" fill-rule="nonzero"/>
	<path id="Path" d="M358.28 116L348.9 133.63C348.9 133.63 281.1 146.59 289.76 166.74C298.41 186.89 308.15 216.41 313.2 215.69C318.25 214.97 346.02 199.13 347.1 194.45C348.18 189.77 322.22 167.82 322.22 167.82L365.13 159.54C365.13 159.54 371.26 188.33 363.33 208.13C355.4 227.92 350.71 281.55 356.12 282.27C361.53 282.99 375.23 287.31 381.36 283.35C387.49 279.39 390.38 192.65 390.38 192.65C390.38 192.65 403.36 135.79 395.43 129.31C387.49 122.83 358.28 116 358.28 116Z" fill="#2F2E41" fill-opacity="1.000000" fill-rule="nonzero"/>
	<path id="Path" d="M372.94 274.25C372.94 274.25 364.56 269.83 362.8 273.37C362.8 273.37 364.12 283.99 358.83 285.31C353.53 286.64 351.33 295.93 358.83 296.81C366.32 297.7 371.17 295.04 373.82 295.04C376.47 295.04 373.82 285.76 373.82 285.76L372.94 274.25Z" fill="#2F2E41" fill-opacity="1.000000" fill-rule="nonzero"/>
	<path id="Path" d="M332.96 201.83C332.96 201.83 323.83 199.27 322.85 203.12C322.85 203.12 326.38 213.25 321.48 215.67C316.58 218.1 316.38 227.68 323.9 226.96C331.42 226.23 335.61 222.6 338.2 222.04C340.79 221.48 336.24 212.93 336.24 212.93L332.96 201.83Z" fill="#2F2E41" fill-opacity="1.000000" fill-rule="nonzero"/>
	<path id="Path" d="M378.39 53.85C378.39 53.85 378.75 67.28 376.25 68.37C373.76 69.46 390.15 76 390.15 76L393 70.91C393 70.91 389.79 52.76 390.5 51.31C391.21 49.86 378.39 53.85 378.39 53.85Z" fill="#9F616A" fill-opacity="1.000000" fill-rule="nonzero"/>
	<path id="Oval" d="M384 57C396.15 57 406 47.15 406 35C406 22.84 396.15 13 384 13C371.85 13 362 22.84 362 35C362 47.15 371.85 57 384 57Z" fill="#2F2E41" fill-opacity="1.000000" fill-rule="nonzero"/>
	<path id="Oval" d="M386 23C390.97 23 395 18.97 395 14C395 9.02 390.97 5 386 5C381.02 5 377 9.02 377 14C377 18.97 381.02 23 386 23Z" fill="#2F2E41" fill-opacity="1.000000" fill-rule="nonzero"/>
	<path id="Path" d="M373.88 9C373.88 4.39 377.38 0.52 382 0.04C381.68 0.01 381.37 0 381.05 0C376.05 0 372 4.02 372 9C372 13.97 376.05 18 381.05 18C381.37 18 381.68 17.98 382 17.95C377.38 17.47 373.88 13.6 373.88 9Z" fill="#2F2E41" fill-opacity="1.000000" fill-rule="nonzero"/>
	<path id="Oval" d="M383 61C391.28 61 398 54.28 398 46C398 37.71 391.28 31 383 31C374.71 31 368 37.71 368 46C368 54.28 374.71 61 383 61Z" fill="#9F616A" fill-opacity="1.000000" fill-rule="nonzero"/>
	<path id="Path" d="M394.25 65.8C394.25 65.8 381.29 69.74 374.82 65.8C368.34 61.86 352.87 73.33 350.35 78.34C347.83 83.36 359.7 88.37 359.7 88.37C359.7 88.37 356.31 98.06 357 102.88C357.72 107.89 356.46 118.1 356.46 118.1C356.46 118.1 388.25 138.95 395.33 129.57C396.41 128.13 405.4 94.46 405.4 94.46L418 81.92C418 81.92 410.08 70.46 405.4 69.39C400.72 68.31 394.25 65.8 394.25 65.8Z" fill="#D0CDE1" fill-opacity="1.000000" fill-rule="nonzero"/>
	<path id="Path" d="M306.93 139C306.93 139 282.68 151.83 287.67 155.5C292.67 159.17 313 141.2 313 141.2L306.93 139Z" fill="#9F616A" fill-opacity="1.000000" fill-rule="nonzero"/>
	<path id="Path" d="M402.92 129.93C402.92 129.93 391.92 122.22 390.15 126.08C388.38 129.93 402.19 138.62 405.1 135.22C408.01 131.82 402.92 129.93 402.92 129.93Z" fill="#9F616A" fill-opacity="1.000000" fill-rule="nonzero"/>
	<path id="Path" d="M411.76 77L418.18 80.98C418.18 80.98 439.91 111.44 432.43 118.33C424.95 125.22 405.71 139 405.71 139C405.71 139 399.29 129.57 401.43 129.21C403.57 128.84 420.67 114.34 420.67 114.34L405.71 86.06L411.76 77Z" fill="#D0CDE1" fill-opacity="1.000000" fill-rule="nonzero"/>
	<path id="Path" d="M354.17 76L349.51 77.81L337.3 99.89L305 139.36C305 139.36 309.3 146.24 312.89 144.8C316.48 143.35 343.41 112.93 343.41 112.93L361 85.41L354.17 76Z" fill="#D0CDE1" fill-opacity="1.000000" fill-rule="nonzero"/>
	<path id="Oval" d="M384.5 37C393.06 37 400 32.97 400 28C400 23.02 393.06 19 384.5 19C375.94 19 369 23.02 369 28C369 32.97 375.94 37 384.5 37Z" fill="#2F2E41" fill-opacity="1.000000" fill-rule="nonzero"/>
	<rect id="Rectangle" x="282.000000" y="223.000000" width="71.000000" height="71.000000" fill="#222F65" fill-opacity="1.000000"/>
	<path id="Shape" d="M343 256.055C343 266.087 338.301 272.409 330.867 272.409C327.061 272.409 324.164 270.378 323.662 267.359L323.121 267.359C321.78 270.5 319.018 272.219 315.307 272.219C308.699 272.219 304.284 266.926 304.284 259.047C304.284 251.479 308.726 246.213 315.213 246.213C318.544 246.213 321.374 247.892 322.62 250.64L323.161 250.64L323.161 246.876L328.565 246.876L328.565 264.381C328.565 266.561 329.77 267.874 331.936 267.874C335.688 267.874 338.071 263.325 338.071 256.258C338.071 244.981 329.621 237.44 317.135 237.44C304.785 237.44 295.983 246.443 295.983 259.182C295.983 272.206 304.691 280.518 318.246 280.518C320.715 280.532 323.181 280.324 325.612 279.895C326.755 279.676 327.863 280.408 328.11 281.544C328.356 282.68 327.65 283.805 326.52 284.078C323.733 284.705 320.885 285.013 318.029 284.999C301.549 284.986 291 274.805 291 259.006C291 243.587 301.766 233 317.46 233C332.546 233 343 242.409 343 256.055ZM316.309 267.21C312.477 267.21 310.121 264.178 310.121 259.169C310.121 254.146 312.436 251.195 316.377 251.195C320.345 251.195 322.891 254.241 322.891 259.169C322.891 264.096 320.345 267.21 316.309 267.21Z" clip-rule="evenodd" fill="#FFFFFF" fill-opacity="1.000000" fill-rule="evenodd"/>
</svg>
