<svg width="540.000000" height="524.313354" viewBox="0 0 540 524.313" fill="none" xmlns="http://www.w3.org/2000/svg" xmlns:xlink="http://www.w3.org/1999/xlink">
	<desc>
			Created with Pixso.
	</desc>
	<defs/>
	<path id="Path" d="M125.18 397.31L167 331.19L73.35 271.31L25 347.78L102.45 397.31L125.18 397.31Z" fill="#F0F0F0" fill-opacity="1.000000" fill-rule="nonzero"/>
	<path id="Shape" d="M80 416.313L183 416.313L183 396.313L80 396.313L80 416.313ZM181.662 415.023L81.3376 415.023L81.3376 397.604L181.662 397.604L181.662 415.023Z" clip-rule="evenodd" fill="#3F3D56" fill-opacity="1.000000" fill-rule="evenodd"/>
	<path id="Oval" d="M171.5 413.31C175.09 413.31 178 410.4 178 406.81C178 403.22 175.09 400.31 171.5 400.31C167.91 400.31 165 403.22 165 406.81C165 410.4 167.91 413.31 171.5 413.31Z" fill="#222F65" fill-opacity="1.000000" fill-rule="nonzero"/>
	<path id="Oval" d="M151.5 413.31C155.09 413.31 158 410.4 158 406.81C158 403.22 155.09 400.31 151.5 400.31C147.91 400.31 145 403.22 145 406.81C145 410.4 147.91 413.31 151.5 413.31Z" fill="#222F65" fill-opacity="1.000000" fill-rule="nonzero"/>
	<path id="Oval" d="M133.5 413.31C137.09 413.31 140 410.4 140 406.81C140 403.22 137.09 400.31 133.5 400.31C129.91 400.31 127 403.22 127 406.81C127 410.4 129.91 413.31 133.5 413.31Z" fill="#222F65" fill-opacity="1.000000" fill-rule="nonzero"/>
	<path id="Oval" d="M114.5 413.31C118.09 413.31 121 410.4 121 406.81C121 403.22 118.09 400.31 114.5 400.31C110.91 400.31 108 403.22 108 406.81C108 410.4 110.91 413.31 114.5 413.31Z" fill="#222F65" fill-opacity="1.000000" fill-rule="nonzero"/>
	<path id="Oval" d="M95.5 413.31C99.08 413.31 102 410.4 102 406.81C102 403.22 99.08 400.31 95.5 400.31C91.91 400.31 89 403.22 89 406.81C89 410.4 91.91 413.31 95.5 413.31Z" fill="#222F65" fill-opacity="1.000000" fill-rule="nonzero"/>
	<path id="Path" d="M307.46 185.25L307.46 134.17L333 134.17L333 109.31L208 109.31L208 234.31L314.85 234.31L314.85 222.09C314.85 217.49 316.68 213.07 319.93 209.82C323.19 206.57 327.6 204.74 332.2 204.74L333 204.74L333 185.25L307.46 185.25Z" fill="#F0F0F0" fill-opacity="1.000000" fill-rule="nonzero"/>
	<rect id="Rectangle" x="47.649536" y="9.918823" width="41.000000" height="41.000000" transform="rotate(-14 47.649536 9.918823)" fill="#F0F0F0" fill-opacity="1.000000"/>
	<rect id="Rectangle" x="47.649536" y="9.918823" width="41.000000" height="41.000000" transform="rotate(-14 47.649536 9.918823)" stroke="#979797" stroke-opacity="0" stroke-width="0.000000"/>
	<rect id="Rectangle" x="362.000000" y="432.313354" width="84.000000" height="17.000000" fill="#222F65" fill-opacity="1.000000"/>
	<rect id="Rectangle" x="340.000000" y="346.313354" width="123.000000" height="16.000000" fill="#F0F0F0" fill-opacity="1.000000"/>
	<rect id="Rectangle" y="523.313354" width="524.000000" height="1.000000" fill="#3F3D56" fill-opacity="1.000000"/>
	<path id="Shape" d="M331.035 524.313L483.965 524.313C493.921 524.302 501.989 516.238 502 506.287L502 222.34C501.989 212.389 493.921 204.325 483.965 204.313L331.035 204.313C321.079 204.325 313.011 212.389 313 222.34L313 506.287C313.011 516.238 321.079 524.302 331.035 524.313ZM314.345 222.34C314.356 213.131 321.822 205.668 331.035 205.658L483.965 205.658C493.178 205.668 500.644 213.131 500.655 222.34L500.655 506.287C500.644 515.496 493.178 522.958 483.965 522.969L331.035 522.969C321.822 522.958 314.356 515.496 314.345 506.287L314.345 222.34Z" clip-rule="evenodd" fill="#3F3D56" fill-opacity="1.000000" fill-rule="evenodd"/>
	<path id="Shape" d="M386 214.313C386 216.523 387.791 218.313 390 218.313C392.208 218.311 393.998 216.521 394 214.313C394 212.104 392.209 210.313 390 210.313C387.791 210.313 386 212.104 386 214.313ZM387.333 214.313C387.333 212.841 388.527 211.647 390 211.647C391.472 211.648 392.665 212.841 392.667 214.313C392.667 215.786 391.473 216.98 390 216.98C388.527 216.98 387.333 215.786 387.333 214.313Z" clip-rule="evenodd" fill="#3F3D56" fill-opacity="1.000000" fill-rule="evenodd"/>
	<rect id="Rectangle" x="400.000000" y="213.313354" width="30.000000" height="1.000000" fill="#3F3D56" fill-opacity="1.000000"/>
	<path id="Path" d="M491 223.31L491 277.31C461.17 277.31 437 253.13 437 223.31L491 223.31Z" fill="#222F65" fill-opacity="1.000000" fill-rule="nonzero"/>
	<path id="Shape" d="M325 506.313L491 506.313L491 223.313L325 223.313L325 506.313ZM489.656 504.969L326.344 504.969L326.344 224.658L489.656 224.658L489.656 504.969Z" clip-rule="evenodd" fill="#3F3D56" fill-opacity="1.000000" fill-rule="evenodd"/>
	<g opacity="0.100000" style="mix-blend-mode:normal">
		<path id="Oval" d="M451.5 274.31C461.71 274.31 470 266.03 470 255.81C470 245.59 461.71 237.31 451.5 237.31C441.28 237.31 433 245.59 433 255.81C433 266.03 441.28 274.31 451.5 274.31Z" fill="#000000" fill-opacity="1.000000" fill-rule="nonzero"/>
	</g>
	<path id="Oval" d="M448.5 276.31C458.71 276.31 467 268.03 467 257.81C467 247.59 458.71 239.31 448.5 239.31C438.28 239.31 430 247.59 430 257.81C430 268.03 438.28 276.31 448.5 276.31Z" fill="#222F65" fill-opacity="1.000000" fill-rule="nonzero"/>
	<rect id="Rectangle" x="332.000000" y="234.313354" width="26.000000" height="9.000000" fill="#3F3D56" fill-opacity="1.000000"/>
	<rect id="Rectangle" x="346.000000" y="324.313354" width="26.000000" height="9.000000" fill="#3F3D56" fill-opacity="1.000000"/>
	<path id="Shape" d="M347 359.313L471 359.313L471 342.313L347 342.313L347 359.313ZM469.652 358.006L348.348 358.006L348.348 343.621L469.652 343.621L469.652 358.006Z" clip-rule="evenodd" fill="#3F3D56" fill-opacity="1.000000" fill-rule="evenodd"/>
	<rect id="Rectangle" x="340.000000" y="397.313354" width="123.000000" height="16.000000" fill="#F0F0F0" fill-opacity="1.000000"/>
	<rect id="Rectangle" x="346.000000" y="374.313354" width="26.000000" height="9.000000" fill="#3F3D56" fill-opacity="1.000000"/>
	<path id="Shape" d="M347 410.313L471 410.313L471 393.313L347 393.313L347 410.313ZM469.652 409.006L348.348 409.006L348.348 394.621L469.652 394.621L469.652 409.006Z" clip-rule="evenodd" fill="#3F3D56" fill-opacity="1.000000" fill-rule="evenodd"/>
	<path id="Shape" d="M366 445.313L451 445.313L451 427.313L366 427.313L366 445.313ZM449.651 444.028L367.349 444.028L367.349 428.599L449.651 428.599L449.651 444.028Z" clip-rule="evenodd" fill="#3F3D56" fill-opacity="1.000000" fill-rule="evenodd"/>
	<path id="Path" d="M466 352.81C466 355.55 464.28 358 461.7 358.92C459.12 359.85 456.23 359.06 454.49 356.95L454.48 356.94C452.78 354.88 452.52 351.98 453.82 349.65C455.12 347.31 457.71 346.01 460.36 346.37C463.01 346.73 465.17 348.67 465.81 351.27C465.81 351.27 465.81 351.27 465.81 351.27C465.81 351.27 465.81 351.27 465.81 351.27C465.93 351.78 465.99 352.29 466 352.81Z" fill="#222F65" fill-opacity="1.000000" fill-rule="nonzero"/>
	<g opacity="0.100000" style="mix-blend-mode:normal">
		<path id="Path" d="M466 352.43C466 355.33 464.23 357.92 461.58 358.9C458.94 359.88 455.98 359.05 454.19 356.81L454.18 356.81C454.06 356.27 454 355.73 454 355.18C454 352.28 455.76 349.7 458.41 348.71C461.05 347.73 464.01 348.57 465.8 350.8C465.8 350.81 465.8 350.81 465.8 350.81C465.81 350.81 465.81 350.81 465.81 350.81C465.93 351.34 465.99 351.89 466 352.43Z" fill="#000000" fill-opacity="1.000000" fill-rule="nonzero"/>
	</g>
	<path id="Oval" d="M462.5 362.31C466.09 362.31 469 359.4 469 355.81C469 352.22 466.09 349.31 462.5 349.31C458.91 349.31 456 352.22 456 355.81C456 359.4 458.91 362.31 462.5 362.31Z" fill="#222F65" fill-opacity="1.000000" fill-rule="nonzero"/>
	<path id="Path" d="M466 402.81C466 405.55 464.28 408 461.7 408.92C459.12 409.85 456.23 409.06 454.49 406.95L454.48 406.94C452.78 404.88 452.52 401.98 453.82 399.65C455.12 397.31 457.71 396.01 460.36 396.37C463.01 396.73 465.17 398.67 465.81 401.27C465.81 401.27 465.81 401.27 465.81 401.27C465.81 401.27 465.81 401.27 465.81 401.27C465.93 401.78 465.99 402.29 466 402.81Z" fill="#222F65" fill-opacity="1.000000" fill-rule="nonzero"/>
	<g opacity="0.100000" style="mix-blend-mode:normal">
		<path id="Path" d="M466 403.43C466 406.33 464.23 408.92 461.58 409.9C458.94 410.88 455.98 410.05 454.19 407.81L454.18 407.81C454.06 407.27 454 406.73 454 406.18C454 403.28 455.76 400.7 458.41 399.71C461.05 398.73 464.01 399.57 465.8 401.8C465.8 401.81 465.8 401.81 465.8 401.81C465.81 401.81 465.81 401.81 465.81 401.81C465.93 402.34 465.99 402.89 466 403.43Z" fill="#000000" fill-opacity="1.000000" fill-rule="nonzero"/>
	</g>
	<path id="Oval" d="M462.5 413.31C466.09 413.31 469 410.4 469 406.81C469 403.22 466.09 400.31 462.5 400.31C458.91 400.31 456 403.22 456 406.81C456 410.4 458.91 413.31 462.5 413.31Z" fill="#222F65" fill-opacity="1.000000" fill-rule="nonzero"/>
	<rect id="Rectangle" x="315.000000" y="141.313354" width="35.000000" height="35.000000" fill="#F0F0F0" fill-opacity="1.000000"/>
	<path id="Shape" d="M443 158.313C443 162.732 446.582 166.313 451 166.313C455.416 166.308 458.995 162.73 459 158.313C459 153.895 455.418 150.313 451 150.313C446.582 150.313 443 153.895 443 158.313ZM444.333 158.313C444.333 154.631 447.318 151.647 451 151.647C454.68 151.651 457.662 154.633 457.667 158.313C457.667 161.995 454.682 164.98 451 164.98C447.318 164.98 444.333 161.995 444.333 158.313Z" clip-rule="evenodd" fill="#3F3D56" fill-opacity="1.000000" fill-rule="evenodd"/>
	<path id="Shape" d="M257 279.313L274 279.313L274 262.313L257 262.313L257 279.313ZM272.692 278.006L258.308 278.006L258.308 263.621L272.692 263.621L272.692 278.006Z" clip-rule="evenodd" fill="#3F3D56" fill-opacity="1.000000" fill-rule="evenodd"/>
	<path id="Shape" d="M523 410.313L540 410.313L540 393.313L523 393.313L523 410.313ZM538.692 409.006L524.308 409.006L524.308 394.621L538.692 394.621L538.692 409.006Z" clip-rule="evenodd" fill="#3F3D56" fill-opacity="1.000000" fill-rule="evenodd"/>
	<path id="Path" d="M195 293.21L197.99 294.84L208.19 300.37L224.66 309.31L234.26 291.38C236.08 287.98 236.49 283.98 235.39 280.28C234.29 276.57 231.77 273.46 228.38 271.63C221.04 267.64 211.98 268.88 205.96 274.7L205.95 274.7C204.51 276.1 203.29 277.71 202.34 279.49L195 293.21Z" fill="#2F2E41" fill-opacity="1.000000" fill-rule="nonzero"/>
	<path id="Path" d="M240 473.39L238.06 496.27L230.82 497.31L226 471.31L240 473.39Z" fill="#FFB8B8" fill-opacity="1.000000" fill-rule="nonzero"/>
	<path id="Path" d="M228.35 497.93C228.35 497.93 237.92 492.8 239.94 496.9C239.94 496.9 238.43 509.22 244.47 510.76C250.52 512.3 253.04 523.07 244.47 524.1C235.91 525.13 230.36 522.05 227.34 522.05C224.32 522.05 227.34 511.27 227.34 511.27L228.35 497.93Z" fill="#2F2E41" fill-opacity="1.000000" fill-rule="nonzero"/>
	<path id="Path" d="M179 473.39L180.93 496.27L188.17 497.31L193 471.31L179 473.39Z" fill="#FFB8B8" fill-opacity="1.000000" fill-rule="nonzero"/>
	<path id="Path" d="M191.64 497.93C191.64 497.93 182.07 492.8 180.05 496.9C180.05 496.9 181.56 509.22 175.52 510.76C169.47 512.3 166.95 523.07 175.52 524.1C184.08 525.13 189.63 522.05 192.65 522.05C195.68 522.05 192.65 511.27 192.65 511.27L191.64 497.93Z" fill="#2F2E41" fill-opacity="1.000000" fill-rule="nonzero"/>
	<path id="Oval" d="M219.5 297.31C226.95 297.31 233 291.26 233 283.81C233 276.35 226.95 270.31 219.5 270.31C212.04 270.31 206 276.35 206 283.81C206 291.26 212.04 297.31 219.5 297.31Z" fill="#FFB8B8" fill-opacity="1.000000" fill-rule="nonzero"/>
	<path id="Path" d="M179 309.11L189.49 325.8L201.98 324.79L222.47 326.31C222.47 326.31 224.41 322.39 225.99 318.58C226.85 316.68 227.52 314.69 227.97 312.65C228.47 309.11 221.47 305.57 221.47 305.57C221.47 305.57 221.2 305.52 220.74 305.41C220.13 305.26 219.19 305.02 218.16 304.66C215.84 303.86 213.04 302.51 212.48 300.51C211.48 296.97 218.97 291.91 218.97 291.91L209.98 283.31C209.98 283.31 201.99 294.54 192.28 297.1C191.72 297.25 191.15 297.37 190.57 297.46C190.54 297.46 190.52 297.47 190.49 297.47C180 298.99 179 309.11 179 309.11Z" fill="#FFB8B8" fill-opacity="1.000000" fill-rule="nonzero"/>
	<path id="Path" d="M184.26 305.31L178.47 309.85C178.47 309.85 173.74 331.53 175.31 337.58C176.89 343.63 174.79 349.18 174.79 350.19C174.79 351.2 170.05 389.01 170.05 389.01C170.05 389.01 160.58 409.18 170.58 407.17C180.58 405.15 176.89 384.98 176.89 384.98L189 349.68L189 319.93L184.26 305.31Z" fill="#FFB8B8" fill-opacity="1.000000" fill-rule="nonzero"/>
	<path id="Path" d="M224.04 309.31L228.13 312.31L230.18 354.3L245.52 390.3C245.52 390.3 256.77 407.8 249.61 408.3C242.45 408.8 237.85 390.3 237.85 390.3L224.04 355.8L222 322.31L224.04 309.31Z" fill="#FFB8B8" fill-opacity="1.000000" fill-rule="nonzero"/>
	<path id="Path" d="M198.73 311.31C198.73 311.31 208.82 318.39 224.96 315.86C224.96 315.86 229.49 324.96 226.97 330.01C224.45 335.07 230 347.2 231.01 348.72C232.02 350.24 243.62 381.58 247.65 415.45C251.69 449.32 262.78 472.58 253.2 475.61C243.62 478.64 223.95 482.18 221.93 479.15C219.91 476.12 216.89 400.79 216.89 400.79L211.34 429.61C211.34 429.61 218.9 478.64 213.36 479.66C207.81 480.67 173.01 477.63 174.02 471.57C175.03 465.5 185.11 433.65 185.11 433.65C185.11 433.65 184.61 369.95 194.7 357.82C194.7 357.82 198.73 351.25 193.18 342.65C187.63 334.06 188.14 320.41 188.14 320.41C188.14 320.41 192.17 320.41 198.73 311.31Z" fill="#2F2E41" fill-opacity="1.000000" fill-rule="nonzero"/>
	<path id="Path" d="M190 297.66L198.08 316.31L200 315.3L191.64 297.31L190 297.66Z" fill="#2F2E41" fill-opacity="1.000000" fill-rule="nonzero"/>
	<path id="Path" d="M218 305.31L224.45 319.31L226 319.17L225.47 316.79L220.63 306.05C220.01 305.9 219.05 305.66 218 305.31Z" fill="#2F2E41" fill-opacity="1.000000" fill-rule="nonzero"/>
	<path id="Path" d="M197.37 294.33C198.36 297.6 201.16 299.94 204.48 300.27C207.8 300.6 210.98 298.86 212.57 295.85C206.2 287.31 211.66 281.95 222.01 277.89C223.6 274.85 223.25 271.13 221.11 268.47C215.34 267.71 209.54 269.67 205.34 273.8L205.33 273.8L197.99 287.79C196.93 289.79 196.71 292.15 197.37 294.33Z" fill="#2F2E41" fill-opacity="1.000000" fill-rule="nonzero"/>
	<path id="Oval" d="M212.5 288.31C213.32 288.31 214 286.97 214 285.31C214 283.65 213.32 282.31 212.5 282.31C211.67 282.31 211 283.65 211 285.31C211 286.97 211.67 288.31 212.5 288.31Z" fill="#FFB8B8" fill-opacity="1.000000" fill-rule="nonzero"/>
	<path id="Path" d="M218 280.43L233.21 287.31L236 281.17C235.52 278.92 234.51 276.82 233.06 275.04L222.59 270.31L218 280.43Z" fill="#2F2E41" fill-opacity="1.000000" fill-rule="nonzero"/>
	<path id="Oval" d="M254.5 415.31C258.09 415.31 261 412.4 261 408.81C261 405.22 258.09 402.31 254.5 402.31C250.91 402.31 248 405.22 248 408.81C248 412.4 250.91 415.31 254.5 415.31Z" fill="#222F65" fill-opacity="1.000000" fill-rule="nonzero"/>
	<path id="Oval" d="M38.5 455.31C40.98 455.31 43 453.29 43 450.81C43 448.32 40.98 446.31 38.5 446.31C36.01 446.31 34 448.32 34 450.81C34 453.29 36.01 455.31 38.5 455.31Z" fill="#FF6584" fill-opacity="1.000000" fill-rule="nonzero"/>
	<rect id="Rectangle" x="59.000000" y="474.313354" width="1.000000" height="50.000000" fill="#3F3D56" fill-opacity="1.000000"/>
	<path id="Oval" d="M60 480.31C63.86 480.31 67 477.17 67 473.31C67 469.44 63.86 466.31 60 466.31C56.13 466.31 53 469.44 53 473.31C53 477.17 56.13 480.31 60 480.31Z" fill="#3F3D56" fill-opacity="1.000000" fill-rule="nonzero"/>
	<path id="Path" d="M59 504.31C59 504.31 58.02 483.04 38 485.51L59 504.31Z" fill="#3F3D56" fill-opacity="1.000000" fill-rule="nonzero"/>
</svg>
