<svg width="480.000000" height="315.848389" viewBox="0 0 480 315.848" fill="none" xmlns="http://www.w3.org/2000/svg" xmlns:xlink="http://www.w3.org/1999/xlink">
	<desc>
			Created with Pixso.
	</desc>
	<defs/>
	<path id="Path" d="M99.08 137.38C74.77 137.49 55 137.84 55 137.84C55 137.84 78.51 106.94 98.99 118.39C119.47 129.84 143 137.44 143 137.44C143 137.44 123.38 137.27 99.08 137.38Z" fill="#F2F2F2" fill-opacity="1.000000" fill-rule="nonzero"/>
	<path id="Oval" d="M371 146.84C373.76 146.84 376 144.61 376 141.84C376 139.08 373.76 136.84 371 136.84C368.23 136.84 366 139.08 366 141.84C366 144.61 368.23 146.84 371 146.84Z" fill="#FF6584" fill-opacity="1.000000" fill-rule="nonzero"/>
	<path id="Rectangle" d="M333.99 221.16L371.97 177.54L373.14 178.56L335.16 222.18L333.99 221.16Z" fill="#3F3D56" fill-opacity="1.000000" fill-rule="nonzero"/>
	<path id="Oval" d="M373 185.84C377.41 185.84 381 182.26 381 177.84C381 173.43 377.41 169.84 373 169.84C368.58 169.84 365 173.43 365 177.84C365 182.26 368.58 185.84 373 185.84Z" fill="#3F3D56" fill-opacity="1.000000" fill-rule="nonzero"/>
	<path id="Path" d="M349.28 204.84C349.28 204.84 364.64 185.27 345 171.84L349.28 204.84Z" fill="#3F3D56" fill-opacity="1.000000" fill-rule="nonzero"/>
	<path id="Path" d="M94.57 239.25C122.72 291.44 182.46 313.84 182.46 313.84C182.46 313.84 196.57 251.63 168.42 199.44C140.27 147.25 80.53 124.84 80.53 124.84C80.53 124.84 66.42 187.06 94.57 239.25Z" fill="#3F3D56" fill-opacity="1.000000" fill-rule="nonzero"/>
	<path id="Path" d="M113.62 222.3C164.43 252.96 184 313.85 184 313.85C184 313.85 121.18 325.04 70.37 294.38C19.56 263.73 0 202.84 0 202.84C0 202.84 62.81 191.65 113.62 222.3Z" fill="#111B47" fill-opacity="1.000000" fill-rule="nonzero"/>
	<path id="Path" d="M315.19 222.57C264.1 252.81 244 313.59 244 313.59C244 313.59 306.71 325.35 357.8 295.11C408.89 264.88 429 204.09 429 204.09C429 204.09 366.28 192.34 315.19 222.57Z" fill="#3F3D56" fill-opacity="1.000000" fill-rule="nonzero"/>
	<path id="Path" d="M333.73 241.06C305.13 292.98 245.2 314.84 245.2 314.84C245.2 314.84 231.65 252.54 260.26 200.62C288.86 148.71 348.79 126.84 348.79 126.84C348.79 126.84 362.34 189.15 333.73 241.06Z" fill="#111B47" fill-opacity="1.000000" fill-rule="nonzero"/>
	<path id="Path" d="M229.88 98.88C223.86 93.44 223.02 84.29 227.94 77.84C227.63 78.14 227.32 78.44 227.02 78.77C221.25 85.16 221.74 95.03 228.13 100.81C234.52 106.59 244.39 106.1 250.17 99.7C250.46 99.38 250.73 99.04 251 98.7C245.07 104.25 235.89 104.32 229.88 98.88Z" fill="#2F2E41" fill-opacity="1.000000" fill-rule="nonzero"/>
	<path id="Oval" d="M215.5 109.84C233.44 109.84 248 95.29 248 77.34C248 59.39 233.44 44.84 215.5 44.84C197.55 44.84 183 59.39 183 77.34C183 95.29 197.55 109.84 215.5 109.84Z" fill="#2F2E41" fill-opacity="1.000000" fill-rule="nonzero"/>
	<path id="Path" d="M206.23 118.87L207.21 116.37L189.47 131.21L168.03 143.16C168.03 143.16 157.12 101.53 156.34 100.76C155.56 99.99 141.53 70.69 135.29 84.57C129.05 98.45 147.37 106.54 147.37 106.54C147.37 106.54 147.96 157.23 166.67 156.84C185.38 156.46 208.57 139.69 208.96 138.15C209.35 136.61 206.23 118.87 206.23 118.87Z" fill="#FFB8B8" fill-opacity="1.000000" fill-rule="nonzero"/>
	<path id="Oval" d="M211.5 110.84C222.27 110.84 231 102.11 231 91.34C231 80.57 222.27 71.84 211.5 71.84C200.73 71.84 192 80.57 192 91.34C192 102.11 200.73 110.84 211.5 110.84Z" fill="#FFB8B8" fill-opacity="1.000000" fill-rule="nonzero"/>
	<path id="Path" d="M214.87 105.59C214.87 105.59 219.94 112.16 218.38 112.93C216.82 113.71 207.86 114.09 202.41 120.66C196.96 127.23 209.03 143.84 209.03 143.84L255 113.32L236.3 107.14C236.3 107.14 223.44 100.18 223.83 92.84L214.87 105.59Z" fill="#FFB8B8" fill-opacity="1.000000" fill-rule="nonzero"/>
	<path id="Path" d="M277 315.84L225.37 315.84C222.44 294.51 221.09 274.95 221.09 274.95C221.09 274.95 220.33 294.62 218.33 315.84L152 315.84C161.4 253 205.97 184.86 205.97 184.86C205.97 184.86 206.36 175.58 207.52 174.03C208.69 172.49 200.94 172.1 197.45 160.5C195.32 153.42 197.23 148.78 199.05 146.25C199.67 145.34 200.44 144.53 201.32 143.87C201.32 143.87 202.1 135.75 201.32 134.59C201.23 134.44 201.99 133.91 203.41 133.1C204.58 132.42 206.21 131.54 208.16 130.54C219.33 124.76 240.95 114.53 248.36 111.05C249.98 110.28 250.93 109.84 250.93 109.84L264.1 114.48C274.56 117.96 274.56 140 274.56 140L273.97 140.9L258.16 164.8L248.99 178.67C251.31 180.22 246.67 189.89 246.67 189.89C246.67 189.89 253.29 199.38 258.68 213.88C261.72 221.95 263.8 230.35 264.87 238.9C265.55 244.45 265.68 250.05 265.26 255.62C263.83 274.25 270.21 296.89 277 315.84Z" fill="#2F2E41" fill-opacity="1.000000" fill-rule="nonzero"/>
	<path id="Path" d="M263.95 116.28C263.09 115.79 262.06 115.71 261.13 116.06C260.21 116.41 259.49 117.15 259.16 118.09C258 121.3 256.83 127.99 257.25 141.89C258.02 167.46 258.4 184.9 258.4 184.9L258.4 223.65C258.4 223.65 241.55 260.84 250.74 260.84C259.93 260.84 266.44 231.4 266.44 231.4C266.44 231.4 274.87 186.84 272.19 179.09C272.19 179.09 279.75 125.55 263.95 116.28Z" fill="#FFB8B8" fill-opacity="1.000000" fill-rule="nonzero"/>
	<path id="Oval" d="M209.5 85.84C218.61 85.84 226 80.69 226 74.34C226 67.99 218.61 62.84 209.5 62.84C200.38 62.84 193 67.99 193 74.34C193 80.69 200.38 85.84 209.5 85.84Z" fill="#2F2E41" fill-opacity="1.000000" fill-rule="nonzero"/>
	<path id="Oval" d="M236 64.84C244.83 64.84 252 57.68 252 48.84C252 40.01 244.83 32.84 236 32.84C227.16 32.84 220 40.01 220 48.84C220 57.68 227.16 64.84 236 64.84Z" fill="#2F2E41" fill-opacity="1.000000" fill-rule="nonzero"/>
	<path id="Path" d="M247 60.23C238.68 60.23 231.75 53.97 231.06 45.84C231.02 46.28 231 46.71 231 47.15C231 55.82 238.16 62.84 247 62.84C255.83 62.84 263 55.82 263 47.15C263 46.71 262.97 46.28 262.94 45.84C262.24 53.97 255.31 60.23 247 60.23Z" fill="#2F2E41" fill-opacity="1.000000" fill-rule="nonzero"/>
	<path id="Oval" d="M230.38 87.86C231.11 87.69 231.38 86.2 230.98 84.53C230.59 82.87 229.67 81.66 228.94 81.83C228.22 82.01 227.95 83.5 228.35 85.16C228.74 86.83 229.66 88.04 230.38 87.86Z" fill="#FFB8B8" fill-opacity="1.000000" fill-rule="nonzero"/>
	<path id="Oval" d="M230 87.84C230.55 87.84 231 87.4 231 86.84C231 86.29 230.55 85.84 230 85.84C229.44 85.84 229 86.29 229 86.84C229 87.4 229.44 87.84 230 87.84Z" fill="#F2F2F2" fill-opacity="1.000000" fill-rule="nonzero"/>
	<path id="Shape" d="M40 147.348C40 150.938 42.9102 153.848 46.5 153.848C50.0882 153.844 52.996 150.937 53 147.348C53 143.759 50.0898 140.848 46.5 140.848C42.9102 140.848 40 143.759 40 147.348ZM41.0833 147.348C41.0833 144.357 43.5085 141.932 46.5 141.932C49.4901 141.935 51.9132 144.358 51.9167 147.348C51.9167 150.34 49.4915 152.765 46.5 152.765C43.5085 152.765 41.0833 150.34 41.0833 147.348Z" clip-rule="evenodd" fill="#3F3D56" fill-opacity="1.000000" fill-rule="evenodd"/>
	<path id="Shape" d="M304 107.848L318 107.848L318 93.8484L304 93.8484L304 107.848ZM316.923 106.771L305.077 106.771L305.077 94.9253L316.923 94.9253L316.923 106.771Z" clip-rule="evenodd" fill="#3F3D56" fill-opacity="1.000000" fill-rule="evenodd"/>
	<path id="Path" d="M436.08 180.38C411.78 180.49 392 180.84 392 180.84C392 180.84 415.51 149.94 435.99 161.39C456.47 172.84 480 180.44 480 180.44C480 180.44 460.38 180.27 436.08 180.38Z" fill="#F2F2F2" fill-opacity="1.000000" fill-rule="nonzero"/>
	<path id="Path" d="M361.08 75.38C336.78 75.49 317 75.84 317 75.84C317 75.84 340.51 44.94 360.99 56.39C381.47 67.84 405 75.44 405 75.44C405 75.44 385.38 75.26 361.08 75.38Z" fill="#F2F2F2" fill-opacity="1.000000" fill-rule="nonzero"/>
	<path id="Path" d="M131.35 88.98L75.23 60C71.4 58.03 69.89 53.3 71.86 49.46L85.08 23.64C85.47 22.89 86.15 22.32 86.97 22.08L131.2 9.13C134.87 8.06 138.74 10.06 140.01 13.68L154.54 55.3C155.27 57.4 155.12 59.71 154.1 61.69L141.86 85.59C140.91 87.44 139.28 88.83 137.31 89.47C135.33 90.1 133.19 89.93 131.35 88.98Z" fill="#F2F2F2" fill-opacity="1.000000" fill-rule="nonzero"/>
	<g opacity="0.100000" style="mix-blend-mode:normal">
		<path id="Path" d="M133.34 79.42L76.8 55.18C74.98 54.24 76.69 55.68 77.62 53.85L84.73 24.84L154 60.61L136.48 82.35C135.55 84.18 135.16 80.36 133.34 79.42Z" fill="#000000" fill-opacity="1.000000" fill-rule="nonzero"/>
	</g>
	<path id="Rectangle" d="M82.62 51.46L101.66 14.43C103.72 10.41 108.66 8.83 112.68 10.9L149.71 29.94C153.73 32 155.31 36.94 153.24 40.96L134.2 77.99C132.13 82.01 127.2 83.59 123.18 81.52L86.15 62.48C82.13 60.42 80.55 55.48 82.62 51.46Z" fill="#111B47" fill-opacity="1.000000" fill-rule="nonzero"/>
	<g opacity="0.100000" style="mix-blend-mode:normal">
		<path id="Path" d="M145 56.43L130.45 84.84L79 58.26L93.54 29.84L112.87 55.63L145 56.43Z" fill="#000000" fill-opacity="1.000000" fill-rule="nonzero"/>
	</g>
	<path id="Path" d="M112.25 57.5L87.28 24.45C86.97 24.03 86.46 23.8 85.94 23.85C85.42 23.89 84.96 24.2 84.72 24.66L70.52 52.22C69.94 53.33 69.84 54.63 70.22 55.82C70.6 57.01 71.45 58 72.56 58.58L134.46 90.32C135.57 90.89 136.87 91 138.07 90.62C139.26 90.24 140.25 89.39 140.83 88.28L154.79 61.2C155.08 60.63 155.06 59.96 154.74 59.41C154.41 58.87 153.83 58.53 153.19 58.51L112.25 57.5Z" fill="#F2F2F2" fill-opacity="1.000000" fill-rule="nonzero"/>
	<path id="Rectangle" d="M107.41 14.18L121.83 21.59L120.79 23.63L106.36 16.22L107.41 14.18Z" fill="#F2F2F2" fill-opacity="1.000000" fill-rule="nonzero"/>
	<path id="Rectangle" d="M102.42 21.01L145.26 43.04L144.66 44.2L101.82 22.17L102.42 21.01Z" fill="#F2F2F2" fill-opacity="1.000000" fill-rule="nonzero"/>
	<path id="Rectangle" d="M100.4 24.94L143.24 46.97L142.64 48.14L99.8 26.11L100.4 24.94Z" fill="#F2F2F2" fill-opacity="1.000000" fill-rule="nonzero"/>
	<path id="Rectangle" d="M98.37 28.88L141.22 50.91L140.62 52.07L97.77 30.04L98.37 28.88Z" fill="#F2F2F2" fill-opacity="1.000000" fill-rule="nonzero"/>
	<path id="Oval" d="M113.07 12.13C114.77 8.82 113.47 4.76 110.17 3.07C106.87 1.37 102.82 2.67 101.12 5.98C99.42 9.29 100.72 13.34 104.02 15.04C107.32 16.74 111.37 15.43 113.07 12.13Z" fill="#FFFFFF" fill-opacity="1.000000" fill-rule="nonzero"/>
	<path id="Shape" d="M110.664 1.73535C106.733 -0.284668 101.909 1.26233 99.8874 5.1908C97.8664 9.11914 99.4142 13.9414 103.345 15.9614C107.275 17.9814 112.1 16.4344 114.121 12.506C116.128 8.57642 114.583 3.7644 110.664 1.73535ZM101.82 6.37L103.592 11.89L113.541 8.70557L113.044 7.15723L104.646 9.85022L103.369 5.87329L101.82 6.37Z" clip-rule="evenodd" fill="#57B894" fill-opacity="1.000000" fill-rule="evenodd"/>
</svg>
